<?xml version="1.0" encoding="UTF-8" standalone="no"?>
<!-- Generator: Adobe Illustrator 19.2.1, SVG Export Plug-In . SVG Version: 6.00 Build 0)  -->

<svg
   xmlns:dc="http://purl.org/dc/elements/1.1/"
   xmlns:cc="http://creativecommons.org/ns#"
   xmlns:rdf="http://www.w3.org/1999/02/22-rdf-syntax-ns#"
   xmlns:svg="http://www.w3.org/2000/svg"
   xmlns="http://www.w3.org/2000/svg"
   xmlns:sodipodi="http://sodipodi.sourceforge.net/DTD/sodipodi-0.dtd"
   xmlns:inkscape="http://www.inkscape.org/namespaces/inkscape"
   version="1.1"
   id="Calque_1"
   x="0px"
   y="0px"
   viewBox="0 0 227.70474 58.221539"
   xml:space="preserve"
   inkscape:version="0.92.4 (5da689c313, 2019-01-14)"
   sodipodi:docname="quantstack-logo.svg"
   width="227.70474"
   height="58.221539"><metadata
     id="metadata9"><rdf:RDF><cc:Work
         rdf:about=""><dc:format>image/svg+xml</dc:format><dc:type
           rdf:resource="http://purl.org/dc/dcmitype/StillImage" /><dc:title></dc:title></cc:Work></rdf:RDF></metadata><defs
     id="defs7" /><sodipodi:namedview
     pagecolor="#ffffff"
     bordercolor="#666666"
     borderopacity="1"
     objecttolerance="10"
     gridtolerance="10"
     guidetolerance="10"
     inkscape:pageopacity="0"
     inkscape:pageshadow="2"
     inkscape:window-width="1217"
     inkscape:window-height="619"
     id="namedview5"
     showgrid="false"
     fit-margin-top="0"
     fit-margin-left="0"
     fit-margin-right="0"
     fit-margin-bottom="0"
     inkscape:zoom="1.0371997"
     inkscape:cx="104.06351"
     inkscape:cy="29.10048"
     inkscape:window-x="0"
     inkscape:window-y="23"
     inkscape:window-maximized="0"
     inkscape:current-layer="Calque_1" /><path
     d="m 112.93308,27.077192 c -1.17,-0.835716 -2.06143,-1.560004 -2.45143,-2.061433 -0.89143,-1.058574 -1.39286,-2.228576 -1.44858,-2.28429 -0.55714,-1.281432 -0.78,-2.618577 -0.66857,-4.067151 v 0 c 0,-0.724288 0,-7.521444 0,-7.521444 h -5.7943 l -0.89143,-1.727146 h 6.68573 V 3.342859 h 1.83858 v 6.017154 h 6.74144 l -0.89143,1.727147 h -5.7943 c 0,0 0,7.410014 0,8.078587 0,1.002859 0.16714,1.950004 0.55715,2.78572 0,0 0.44571,0.947145 1.11428,1.782861 0.33429,0.334286 1.00286,0.947144 1.89429,1.615717 z M 55.7144,26.631476 c 0,-5.682868 5.40429,-7.020014 16.43574,-7.465729 -0.33428,-5.181439 -2.06143,-8.468588 -8.1343,-8.468588 -1.67143,0 -3.23143,0.278572 -4.79144,1.002859 l -0.83571,-1.615717 c 1.83857,-0.947145 3.73286,-1.170003 5.62715,-1.170003 7.24287,0 10.08431,3.900008 10.08431,12.312882 0,8.357159 -2.84144,12.312882 -10.08431,12.312882 -0.0557,0 -0.33428,0 -0.39,0 -6.12858,-0.05572 -7.91144,-2.841435 -7.91144,-6.908586 z m 1.95,0.05572 c 0,1.560003 0.27857,2.730005 1.05857,3.565721 0.22286,0.278572 0.55715,0.50143 0.94715,0.668573 1.44857,0.612858 2.89715,0.835716 4.40144,0.835716 6.79715,0 8.19001,-4.122866 8.19001,-10.530021 0,-0.111429 0,-0.278572 0,-0.390001 -9.3043,0.445715 -14.59717,1.225717 -14.59717,5.850012 z M 90.59161,8.858589 h -1.05857 c -6.9643,0 -7.91145,5.850011 -7.91145,10.975736 v 12.368596 c 0.55715,0.50143 1.22572,0.89143 1.89429,1.225717 v -12.98146 c 0,-5.794297 0.83572,-9.861448 6.35144,-9.861448 h 0.50143 c 5.46001,0 6.35144,4.067151 6.35144,9.861448 v 13.037169 c 0.66858,-0.334286 1.33715,-0.724287 1.89429,-1.225717 V 19.890034 C 98.50305,14.708595 97.50019,8.858584 90.59161,8.858584 Z m 50.97867,11.03145 c -1.39286,-1.615717 -4.12286,-2.451433 -8.9143,-4.178579 -1.05857,-0.390001 -2.00572,-0.724288 -2.95286,-1.170003 v 0 c -2.84144,-1.170002 -4.84716,-2.674291 -4.84716,-6.017155 0,-5.125724 3.56572,-6.741442 8.07859,-6.741442 2.11715,0 4.17858,0.222858 6.24001,0.947145 l 0.83572,-1.615717 C 137.7817,0.278572 135.38598,0 132.87884,0 c -5.23716,0 -9.86145,2.28429 -9.86145,8.580017 0,3.732864 1.89429,5.794297 4.79144,7.187157 v 0 c 0.44571,0.167143 0.78,0.334286 1.17,0.50143 0,0 0,0 0,0 v 0 c 1.05857,0.445715 1.83857,0.780001 2.84143,1.114287 4.68001,1.671432 6.85287,1.950004 8.41288,3.677151 0.11143,0.111428 2.28429,2.674291 1.72714,5.794297 -0.27857,1.615717 -1.22571,3.064292 -2.73,4.345723 -3.45429,2.841434 -8.85859,2.228576 -14.04003,0.501429 l -0.89143,1.727147 c 2.84143,1.002859 5.7943,1.671432 8.58002,1.671432 2.84143,0 5.40429,-0.668573 7.52144,-2.395719 2.34,-1.950004 3.17572,-4.011437 3.39858,-5.460011 0.61286,-3.900008 -1.95001,-7.020014 -2.22858,-7.354301 z M 31.86864,45.797229 c -0.50143,0.501429 -1.00286,0.947145 -1.61572,1.281431 -5.18144,-2.674291 -8.91431,-7.298586 -10.8086,-13.315741 -1.78286,0.89143 -3.95572,1.337146 -6.57429,1.337146 C 3.621436,35.100065 0,29.695768 0,17.995745 0,6.351436 3.621436,0.891425 12.87003,0.891425 c 9.24859,0 12.87002,5.404297 12.87002,17.10432 0,7.242871 -1.39286,12.03431 -4.68001,14.708601 1.78286,6.072869 5.57144,10.585735 10.8086,13.092883 z M 23.79005,17.995745 c 0,-9.137161 -1.83858,-15.321459 -10.97574,-15.321459 -9.137159,0 -10.975735,6.128583 -10.975735,15.321459 0,9.137161 1.838576,15.321459 10.975735,15.321459 9.13716,0 10.97574,-6.128584 10.97574,-15.321459 z m 177.11606,13.761456 c -6.79715,0 -8.19001,-4.122866 -8.19001,-10.530021 0,-6.407156 1.39286,-10.530021 8.19001,-10.530021 1.72715,0 3.34287,0.278572 4.90287,1.058573 l 0.83572,-1.615717 c -1.89429,-0.947145 -3.8443,-1.170002 -5.68287,-1.170002 -7.24287,0 -10.08431,3.900007 -10.08431,12.312881 0,8.35716 2.84144,12.312882 10.08431,12.312882 1.89429,0 3.84429,-0.222858 5.73858,-1.170002 l -0.83571,-1.615718 c -1.67144,0.668573 -3.28715,0.947145 -4.95859,0.947145 z M 156.7246,29.584339 c -0.72429,-0.835716 -1.11429,-1.78286 -1.11429,-1.78286 -0.39,-0.891431 -0.55714,-1.838575 -0.55714,-2.78572 0,-0.668573 0,-13.761456 0,-13.761456 h 6.68572 l -0.89143,-1.727146 h -5.79429 v -6.07287 h -1.83858 v 6.017155 h -5.85001 l -0.89143,1.727146 h 6.74144 c 0,0 0,12.480025 0,13.204312 v 0 c -0.0557,1.448575 0.16714,2.841435 0.66857,4.067151 0,0.05571 0.55715,1.225717 1.44858,2.284291 0.44571,0.501429 1.33714,1.281431 2.56286,2.117147 l 0.83572,-1.727147 c -1.00286,-0.612858 -1.67144,-1.170002 -2.00572,-1.560003 z m 70.98014,-17.382891 c -0.39,-0.50143 -0.83572,-0.947145 -1.33715,-1.337146 l -10.19573,10.14002 V 8.747155 H 215.949 c -0.61286,0.111429 -1.11429,0.278572 -1.67143,0.445715 v 23.734333 c 0.61286,0.222858 1.22572,0.334287 1.89429,0.50143 V 21.561466 l 9.91716,9.917163 c 0.50143,-0.390001 0.94715,-0.780002 1.39286,-1.281431 l -8.9143,-8.914304 z M 49.41867,10.140015 C 48.86153,9.638585 48.19295,9.248585 47.52438,8.914298 v 13.037169 c 0,5.794297 -0.83572,9.861448 -6.35144,9.861448 h -0.50143 c -5.46001,0 -6.35144,-4.067151 -6.35144,-9.861448 V 8.858584 C 33.6515,9.19287 32.98292,9.582871 32.42578,10.084301 v 12.368596 c 0,5.125724 1.00286,10.975736 7.91144,10.975736 h 1.17001 c 6.9643,0 7.91144,-5.850012 7.91144,-10.975736 z m 116.77738,16.491461 c 0,-5.682868 5.40429,-7.020014 16.43574,-7.465729 -0.33428,-5.181439 -2.06143,-8.468588 -8.1343,-8.468588 -1.67143,0 -3.23143,0.278572 -4.79144,1.002859 l -0.83571,-1.615717 c 1.83857,-0.947145 3.73286,-1.170003 5.62715,-1.170003 7.24287,0 10.08431,3.900008 10.08431,12.312882 0,8.357159 -2.84144,12.312882 -10.08431,12.312882 -0.0557,0 -0.33429,0 -0.39,0 -6.12858,-0.05572 -7.91144,-2.841435 -7.91144,-6.908586 z m 1.95,0.05572 c 0,1.560003 0.27857,2.730005 1.05857,3.565721 0.22286,0.278572 0.55715,0.50143 0.94715,0.668573 1.44857,0.612858 2.89715,0.835716 4.40144,0.835716 6.79715,0 8.19001,-4.122866 8.19001,-10.530021 0,-0.111429 0,-0.278572 0,-0.390001 -9.3043,0.445715 -14.59717,1.225717 -14.59717,5.850012 z M 42.23151,50.421524 c -1.22571,-0.390001 -2.22857,-0.668573 -2.22857,-1.838575 0,-1.281431 0.89143,-1.671432 2.11714,-1.671432 0.83572,0 1.67144,0.167143 2.39572,0.557144 l 0.39,-0.947145 c -0.83571,-0.445715 -1.83857,-0.557144 -2.84143,-0.557144 -1.72715,0 -3.12001,0.780002 -3.12001,2.730005 0,1.838576 1.50429,2.39572 2.89715,2.78572 1.28143,0.390001 2.50715,0.612859 2.50715,1.838575 0,1.448575 -0.94714,1.89429 -2.17286,1.89429 -1.11429,0 -2.22858,-0.334287 -3.12001,-0.835716 l -0.39,0.947145 c 0.89143,0.557144 2.17286,0.89143 3.51001,0.89143 1.95,0 3.28715,-0.89143 3.28715,-2.841434 0,-2.061433 -1.78286,-2.562862 -3.23144,-2.952863 z m 9.02574,-1.002859 c 0.50142,0 1.05857,0.111428 1.56,0.334286 l 0.39,-0.835716 c -0.55714,-0.334286 -1.22572,-0.445715 -1.95,-0.445715 -2.11715,0 -3.0643,1.170002 -3.0643,3.788579 0,2.618576 0.94715,3.788579 3.0643,3.788579 0.72428,0 1.39286,-0.111429 1.95,-0.445715 l -0.39,-0.835716 c -0.50143,0.278572 -1.00286,0.334286 -1.56,0.334286 -1.44858,0 -2.00572,-0.668573 -2.00572,-2.897149 0,-2.228575 0.50143,-2.785719 2.00572,-2.785719 z m 5.40429,-2.061433 c 0.44572,0 0.66857,-0.167143 0.66857,-0.612858 0,-0.445716 -0.27857,-0.612859 -0.66857,-0.612859 -0.44571,0 -0.66857,0.167143 -0.66857,0.612859 0,0.445715 0.22286,0.612858 0.66857,0.612858 z m 0.50143,1.281431 -1.05857,0.167143 v 4.624295 c 0,0.947145 0.0557,1.782861 0.27857,2.507148 h 1.00286 c -0.22286,-0.780002 -0.22286,-1.615717 -0.22286,-2.451433 z m 9.08145,3.844293 v 0.111429 l -4.84715,0.390001 c 0.0557,1.727146 0.78,2.228576 2.11714,2.228576 0.72429,0 1.39286,-0.167143 2.06144,-0.557144 l 0.39,0.780001 c -0.72429,0.50143 -1.56001,0.668573 -2.45144,0.668573 -1.89429,0 -3.17572,-0.780001 -3.17572,-3.788579 0,-3.17572 1.44858,-3.788579 3.00858,-3.788579 1.83857,-0.05571 2.89715,0.835716 2.89715,3.955722 z m -1.00286,-0.668572 c -0.0557,-1.838575 -0.72429,-2.451434 -1.83858,-2.451434 -1.22571,0 -2.00571,0.668573 -2.00571,2.618577 v 0.167143 z m 7.3543,-3.342864 c -1.22572,0 -1.95,0.390001 -2.39572,1.170002 -0.0557,-0.390001 -0.16714,-0.724287 -0.27857,-1.058573 l -0.89143,0.222857 c 0.22286,0.780002 0.27857,1.671432 0.27857,2.507148 v 4.624295 h 1.05857 v -5.125724 c 0.44572,-0.947145 1.00286,-1.448575 2.06144,-1.448575 1.50428,0 1.61571,1.002859 1.61571,2.618577 v 3.955722 h 1.05858 v -4.17858 c -0.0557,-1.671432 -0.39,-3.287149 -2.50715,-3.287149 z m 7.29859,-2.172862 -1.05858,0.167144 v 2.228575 h -1.22572 v 0.891431 h 1.22572 v 2.897148 c 0,1.615718 0.11143,2.78572 1.28143,3.677151 l 0.72429,-0.612859 c -0.89143,-0.835716 -0.89143,-1.560003 -0.89143,-2.78572 v -3.17572 h 1.50429 l 0.11143,-0.891431 h -1.61572 v -2.395719 z m 4.79143,1.058574 c 0.44572,0 0.66858,-0.167143 0.66858,-0.612858 0,-0.445716 -0.27858,-0.612859 -0.66858,-0.612859 -0.44571,0 -0.66857,0.167143 -0.66857,0.612859 0,0.445715 0.27857,0.612858 0.66857,0.612858 z m 0.55715,1.281431 -1.05858,0.167143 v 4.624295 c 0,0.947145 0.0557,1.782861 0.27858,2.507148 h 1.00285 c -0.22285,-0.780002 -0.22285,-1.615717 -0.22285,-2.451433 z m 6.01715,-2.061433 c 0.16715,0 0.39,0.05571 0.61286,0.111429 l 0.16714,-0.89143 C 91.76161,45.741509 91.48304,45.6858 91.20447,45.6858 c -1.56001,0 -2.06143,0.89143 -2.06143,2.117147 0,0.334286 0.0557,0.668573 0.11142,1.002859 h -1.22571 v 0.891431 h 1.22571 v 6.240012 h 1.05858 v -6.240012 h 1.56 l 0.11143,-0.891431 h -1.67143 c -0.11143,-0.278572 -0.11143,-0.668573 -0.11143,-0.947145 -0.11143,-0.89143 0.11143,-1.281431 1.05857,-1.281431 z m 4.01144,0.780002 c 0.44571,0 0.66857,-0.167143 0.66857,-0.612858 0,-0.445716 -0.27857,-0.612859 -0.66857,-0.612859 -0.44572,0 -0.66857,0.167143 -0.66857,0.612859 0,0.445715 0.22285,0.612858 0.66857,0.612858 z m 0.50143,1.281431 -1.05858,0.167143 v 4.624295 c 0,0.947145 0.0557,1.782861 0.27858,2.507148 h 1.00286 c -0.22286,-0.780002 -0.22286,-1.615717 -0.22286,-2.451433 z m 6.29573,0.780002 c 0.50142,0 1.05857,0.111428 1.56,0.334286 l 0.39,-0.835716 c -0.55714,-0.334286 -1.22572,-0.445715 -1.95,-0.445715 -2.11715,0 -3.0643,1.170002 -3.0643,3.788579 0,2.618576 0.94715,3.788579 3.0643,3.788579 0.72428,0 1.39286,-0.111429 1.95,-0.445715 l -0.39,-0.835716 c -0.50143,0.278572 -1.00286,0.334286 -1.56,0.334286 -1.44858,0 -2.00572,-0.668573 -2.00572,-2.897149 0,-2.228575 0.50143,-2.785719 2.00572,-2.785719 z m 12.75859,-2.507148 c 0.78,0 1.56001,0.167143 2.28429,0.557144 l 0.44572,-0.891431 c -0.78,-0.501429 -1.78286,-0.612858 -2.78572,-0.612858 -2.28429,0 -3.8443,1.170002 -3.8443,5.125725 0,3.955722 1.61572,5.125724 3.8443,5.125724 1.00286,0 2.00572,-0.111429 2.78572,-0.612858 l -0.44572,-0.891431 c -0.72428,0.445715 -1.50429,0.557144 -2.28429,0.557144 -1.72714,0 -2.84143,-0.668573 -2.84143,-4.122865 0,-3.454293 1.17,-4.234294 2.84143,-4.234294 z m 11.42145,5.404296 c 0,2.618577 -0.89143,3.788579 -3.17572,3.788579 -2.28429,0 -3.17572,-1.225717 -3.17572,-3.788579 0,-2.618576 0.89143,-3.788579 3.17572,-3.788579 2.28429,-0.05571 3.17572,1.170003 3.17572,3.788579 z m -1.05857,0 c 0,-1.838575 -0.33429,-2.897148 -2.11715,-2.897148 -1.78286,0 -2.11714,1.114288 -2.11714,2.897148 0,1.782861 0.33428,2.897149 2.11714,2.897149 1.78286,0 2.11715,-1.114288 2.11715,-2.897149 z m 11.92288,-3.844293 c -1.22572,0 -1.95,0.390001 -2.50715,1.281431 -0.33428,-0.780002 -0.94714,-1.281431 -2.06143,-1.281431 -1.17,0 -1.89429,0.390001 -2.34,1.170002 -0.0557,-0.390001 -0.16715,-0.724287 -0.27858,-1.058573 l -0.89143,0.222857 c 0.22286,0.780002 0.27858,1.671432 0.27858,2.507148 v 4.624295 h 1.05857 v -5.125724 c 0.44571,-0.947145 0.94714,-1.448575 1.95,-1.448575 1.28143,0 1.56001,0.780002 1.56001,1.838575 v 4.735724 h 1.05857 v -5.125724 c 0.44571,-0.947145 0.94714,-1.448575 1.95,-1.448575 1.44858,0 1.56001,1.002859 1.56001,2.618577 v 3.955722 h 1.05857 v -4.17858 c 0,-1.671432 -0.33429,-3.287149 -2.39572,-3.287149 z m 11.53288,3.844293 c 0,3.175721 -1.50429,3.788579 -2.95286,3.788579 -0.72429,0 -1.33715,-0.111429 -1.89429,-0.445715 0.0557,0.50143 0.0557,0.947145 0.0557,1.39286 v 1.058573 h -1.05857 v -6.797156 c 0,-0.89143 -0.0557,-1.727146 -0.27857,-2.507148 l 0.89143,-0.222857 c 0.11143,0.334286 0.22286,0.724287 0.27857,1.058573 0.44571,-0.780001 1.17,-1.170002 2.34,-1.170002 1.83858,0 2.61858,1.281431 2.61858,3.844293 z m -1.05857,0 c 0,-1.78286 -0.33429,-2.952863 -1.72715,-2.952863 -1.05857,0 -1.56,0.557144 -2.06143,1.448575 v 3.955722 c 0.55714,0.334286 1.17,0.445715 1.78286,0.445715 1.28143,0 2.00572,-0.50143 2.00572,-2.897149 z m 9.80573,-3.67715 -1.05857,0.167143 v 4.958582 c -0.44572,0.947144 -1.00286,1.448574 -2.06144,1.448574 -1.50428,0 -1.61571,-1.002859 -1.61571,-2.618577 v -3.955722 l -1.05858,0.167143 v 4.011437 c 0,1.727146 0.33429,3.287149 2.45144,3.287149 1.22571,0 1.95,-0.390001 2.39572,-1.170002 0.0557,0.390001 0.16714,0.724287 0.27857,1.058573 l 0.89143,-0.222857 c -0.22286,-0.780002 -0.27857,-1.671432 -0.27857,-2.507148 v -4.624295 z m 4.95858,-2.340005 -1.05857,0.167144 v 2.228575 h -1.22572 v 0.891431 h 1.22572 v 2.897148 c 0,1.615718 0.11143,2.78572 1.28143,3.677151 l 0.72429,-0.612859 c -0.89143,-0.835716 -0.89143,-1.560003 -0.89143,-2.78572 v -3.17572 h 1.50429 l 0.11142,-0.891431 h -1.61571 v -2.395719 z m 4.79144,1.058574 c 0.44572,0 0.66857,-0.167143 0.66857,-0.612858 0,-0.445716 -0.27857,-0.612859 -0.66857,-0.612859 -0.44571,0 -0.66857,0.167143 -0.66857,0.612859 0,0.445715 0.22286,0.612858 0.66857,0.612858 z m 0.50143,1.281431 -1.05857,0.167143 v 4.624295 c 0,0.947145 0.0557,1.782861 0.27857,2.507148 h 1.00286 c -0.22286,-0.780002 -0.22286,-1.615717 -0.22286,-2.451433 z m 6.74144,-0.167143 c -1.22571,0 -1.95,0.390001 -2.39572,1.170002 -0.0557,-0.390001 -0.16714,-0.724287 -0.27857,-1.058573 l -0.89143,0.222857 c 0.22286,0.780002 0.27857,1.671432 0.27857,2.507148 v 4.624295 h 1.05858 v -5.125724 c 0.44571,-0.947145 1.00286,-1.448575 2.06143,-1.448575 1.50429,0 1.61572,1.002859 1.61572,2.618577 v 3.955722 h 1.05857 v -4.17858 c -0.0557,-1.671432 -0.39,-3.287149 -2.50715,-3.287149 z m 8.46859,0 c 1.00286,0 1.95,0.111429 2.84143,0.445715 v 6.46287 c 0,2.005718 -1.05857,2.841434 -2.78572,2.841434 -0.66857,0 -1.39286,-0.111429 -2.00571,-0.39 l 0.27857,-0.835716 c 0.50143,0.278572 1.11429,0.39 1.78286,0.39 1.05857,0 1.72715,-0.501429 1.72715,-2.005718 v -0.50143 c -0.39001,0.724288 -1.11429,1.00286 -2.22858,1.00286 -1.83858,0 -2.61858,-1.225717 -2.61858,-3.732865 0,-2.952863 1.33715,-3.67715 3.00858,-3.67715 z m 1.83858,1.170002 c -0.55715,-0.222857 -1.22572,-0.278572 -1.83858,-0.278572 -1.22572,0 -1.95,0.557144 -1.95,2.841434 0,1.727147 0.33428,2.841435 1.72714,2.841435 1.05858,0 1.56001,-0.50143 2.06144,-1.39286 z"
     id="path3"
     inkscape:connector-curvature="0"
     style="stroke-width:0.55714399" /></svg>