<?xml version="1.0" encoding="UTF-8" standalone="no"?>
<svg
   xmlns:dc="http://purl.org/dc/elements/1.1/"
   xmlns:cc="http://creativecommons.org/ns#"
   xmlns:rdf="http://www.w3.org/1999/02/22-rdf-syntax-ns#"
   xmlns:svg="http://www.w3.org/2000/svg"
   xmlns="http://www.w3.org/2000/svg"
   xmlns:sodipodi="http://sodipodi.sourceforge.net/DTD/sodipodi-0.dtd"
   xmlns:inkscape="http://www.inkscape.org/namespaces/inkscape"
   id="Calque_1"
   data-name="Calque 1"
   viewBox="0 0 265 97.52"
   version="1.1"
   sodipodi:docname="ipywidgets.svg"
   inkscape:version="0.92.3 (unknown)">
  <metadata
     id="metadata17">
    <rdf:RDF>
      <cc:Work
         rdf:about="">
        <dc:format>image/svg+xml</dc:format>
        <dc:type
           rdf:resource="http://purl.org/dc/dcmitype/StillImage" />
      </cc:Work>
    </rdf:RDF>
  </metadata>
  <sodipodi:namedview
     pagecolor="#ffffff"
     bordercolor="#666666"
     borderopacity="1"
     objecttolerance="10"
     gridtolerance="10"
     guidetolerance="10"
     inkscape:pageopacity="0"
     inkscape:pageshadow="2"
     inkscape:window-width="2044"
     inkscape:window-height="1076"
     id="namedview15"
     showgrid="false"
     inkscape:zoom="2.8226415"
     inkscape:cx="172.83026"
     inkscape:cy="56.948531"
     inkscape:window-x="0"
     inkscape:window-y="44"
     inkscape:window-maximized="0"
     inkscape:current-layer="Calque_1" />
  <defs
     id="defs4">
    <style
       id="style2">.cls-1{fill:#171729;}.cls-2{fill:#80d588;}.cls-3{fill:#fff;}</style>
  </defs>
  <title
     id="title6">ipywidgets</title>
  <path
     class="cls-2"
     d="M11.15,13.68V52.94h7.47a1,1,0,0,1,.79.39,1.49,1.49,0,0,1,.34,1,1.58,1.58,0,0,1-.31.94,1,1,0,0,1-.82.39H9.68a1.41,1.41,0,0,1-1-.34,1.11,1.11,0,0,1-.4-.84V12a1.11,1.11,0,0,1,.4-.85,1.41,1.41,0,0,1,1-.34h8.94a1,1,0,0,1,.82.4,1.55,1.55,0,0,1,.31.93,1.49,1.49,0,0,1-.34,1,1.06,1.06,0,0,1-.79.4ZM26,27.82c-.9,0-1.35.37-1.35,1.13V53.28a1.16,1.16,0,0,0,.39.87,1.33,1.33,0,0,0,1,.37,1.4,1.4,0,0,0,1-.45,1.14,1.14,0,0,0,.43-.85V28.9c0-.77-.43-1.13-1.39-1.13Zm0-12.5a2.15,2.15,0,0,0-1.52.59,1.85,1.85,0,0,0-.63,1.39,2,2,0,0,0,.63,1.47,2,2,0,0,0,1.52.62,2.12,2.12,0,0,0,2.1-2.09,1.85,1.85,0,0,0-.63-1.39A2.09,2.09,0,0,0,26,15.26ZM52.39,30.45a10,10,0,0,1,2.83,7.33v6.56a10.36,10.36,0,0,1-2.83,7.3,9.42,9.42,0,0,1-7,3.17,8.89,8.89,0,0,1-4.67-1.22,7.87,7.87,0,0,1-3-3.06v16a1.14,1.14,0,0,1-.43.85,1.51,1.51,0,0,1-1,.4,1.32,1.32,0,0,1-1-.37,1.23,1.23,0,0,1-.4-.88V28.9c0-.77.46-1.13,1.36-1.13a1.49,1.49,0,0,1,1,.31,1,1,0,0,1,.4.82v2.83a8.1,8.1,0,0,1,7.58-4.3A9.79,9.79,0,0,1,52.39,30.45Zm.23,7.33a7.56,7.56,0,0,0-2.29-5.38A7.22,7.22,0,0,0,45,30a7.11,7.11,0,0,0-5.09,2.12,7.44,7.44,0,0,0-2.21,5.66v8.48A5.86,5.86,0,0,0,40,50.08a7.19,7.19,0,0,0,5.14,2.15,7,7,0,0,0,5.26-2.4,7.84,7.84,0,0,0,2.27-5.46ZM78.3,27.37a1.23,1.23,0,0,0-1.08.73L69.36,49.88l-8-21.75a.92.92,0,0,0-1-.73,1.63,1.63,0,0,0-1.1.39,1.17,1.17,0,0,0-.51,1,1.14,1.14,0,0,0,0,.45L68,53.59q-3.47,11.6-8.2,11.6c-.65,0-1,.42-1,1.3a1.13,1.13,0,0,0,.94,1.29,1.28,1.28,0,0,0,.34,0,6.21,6.21,0,0,0,2.57-.57,6.36,6.36,0,0,0,2.29-1.89A29.82,29.82,0,0,0,66.73,63a16.42,16.42,0,0,0,1.64-3.17c.62-1.41,1-2.43,1.25-3l1.21-3.17,8.94-24.38a1.7,1.7,0,0,0,0-.45,1.17,1.17,0,0,0-.51-1,1.82,1.82,0,0,0-1-.42ZM91.42,11.3a1.45,1.45,0,0,0-1-.34h-9a1.11,1.11,0,0,0-.85.4,1.44,1.44,0,0,0-.34.93,1.47,1.47,0,0,0,.34,1,1.08,1.08,0,0,0,.85.4h7.46V52.94H81.47a1.1,1.1,0,0,0-.85.39,1.49,1.49,0,0,0-.34,1,1.45,1.45,0,0,0,.34.94,1.1,1.1,0,0,0,.85.39H90.4a1.42,1.42,0,0,0,1-.34,1.1,1.1,0,0,0,.39-.84V12a1.13,1.13,0,0,0-.39-.74Z"
     id="path10" />
  <path
     class="cls-3"
     d="M131.42,28.13a1.16,1.16,0,0,1,.45.91,1.6,1.6,0,0,1-.23.85l-8.82,24.18a1.13,1.13,0,0,1-1.08.79,1,1,0,0,1-1-.71l-6.13-20-6.23,19.63a1.26,1.26,0,0,1-1.24,1,1.22,1.22,0,0,1-1.22-1l-8.77-24a5.45,5.45,0,0,1-.22-.79,1.08,1.08,0,0,1,.34-.88,1.55,1.55,0,0,1,1.07-.36,1.17,1.17,0,0,1,1.11.67l7.69,21.22,6.16-19.46a1.1,1.1,0,0,1,2.15,0l6,19.8,7.81-21.58c0-.46.45-.68,1.07-.68A1.85,1.85,0,0,1,131.42,28.13Zm6.84-.28c-.9,0-1.36.37-1.36,1.13V53.31a1.21,1.21,0,0,0,.4.87,1.32,1.32,0,0,0,1,.37,1.42,1.42,0,0,0,1-.4,1.14,1.14,0,0,0,.43-.84V28.9c0-.77-.49-1.13-1.42-1.13Zm0-12.5a2.16,2.16,0,0,0-1.53.59,1.84,1.84,0,0,0-.62,1.39,2,2,0,0,0,.62,1.47,2.05,2.05,0,0,0,1.53.62,2.11,2.11,0,0,0,2.09-2.09,1.81,1.81,0,0,0-.62-1.39,2.12,2.12,0,0,0-1.47-.68Zm28-3.79a1.1,1.1,0,0,1,.39.85V53.22a1.22,1.22,0,0,1-.39.88,1.4,1.4,0,0,1-1.93,0,1.19,1.19,0,0,1-.39-.85V50.39a7.87,7.87,0,0,1-3.09,3.2,9,9,0,0,1-4.61,1.24,9.39,9.39,0,0,1-7-3.16,10.36,10.36,0,0,1-3-7.3V37.78a10,10,0,0,1,3-7.33,9.79,9.79,0,0,1,7.19-3,8.45,8.45,0,0,1,7.52,4.3V12.32a1.08,1.08,0,0,1,.4-.85,1.52,1.52,0,0,1,1-.31,1.48,1.48,0,0,1,1,.31Zm-2.38,26.3a7.39,7.39,0,0,0-2.23-5.65,7.16,7.16,0,0,0-10.12-.11l-.32.33a7.61,7.61,0,0,0-2.26,5.38v6.56a7.83,7.83,0,0,0,2.26,5.46,7,7,0,0,0,5.26,2.4,7.23,7.23,0,0,0,5.15-2.15,5.85,5.85,0,0,0,2.26-3.79Zm30.8-11a1.29,1.29,0,0,1,.37.91,1,1,0,0,1-.9,1.12H194a4.1,4.1,0,0,0-3.28,2.54,8.52,8.52,0,0,1,1.47,5.18v2.32a9.05,9.05,0,0,1-8.7,9.39q-.37,0-.75,0a9.09,9.09,0,0,1-4.47-1.08c-1.35.68-2,1.5-2,2.49s.62,1.7,1.84,2.12a18.16,18.16,0,0,0,4.44.85c1.72.14,3.45.34,5.17.65a9.13,9.13,0,0,1,4.42,2,5.69,5.69,0,0,1,1.72,4.5A6.63,6.63,0,0,1,191,65.69a13.33,13.33,0,0,1-7.89,2.07,14.36,14.36,0,0,1-8.06-2A6.16,6.16,0,0,1,172,60.35a6.41,6.41,0,0,1,4.89-6.22,4.06,4.06,0,0,1-3.28-4,4.41,4.41,0,0,1,2.83-4,9,9,0,0,1-3-7.13v-2.4a9.05,9.05,0,0,1,2.6-6.68,9.22,9.22,0,0,1,6.79-2.6,9.08,9.08,0,0,1,6.68,2.55,7.63,7.63,0,0,1,1.92-2.55,3.36,3.36,0,0,1,2.15-1A1.48,1.48,0,0,1,194.63,26.86Zm-20,33.21A4.58,4.58,0,0,0,176.9,64a11.26,11.26,0,0,0,6.22,1.5A10.15,10.15,0,0,0,189,64a4.64,4.64,0,0,0,2.12-4,3.7,3.7,0,0,0-.59-2.12,4.55,4.55,0,0,0-1.44-1.39,8,8,0,0,0-2.15-.85,14.88,14.88,0,0,0-2.29-.42l-2.47-.2-2-.22C176.47,55.91,174.63,57.66,174.63,60.07Zm14.88-23.45a7,7,0,0,0-1.81-5,6.39,6.39,0,0,0-4.92-1.95,6.32,6.32,0,0,0-4.89,1.95,7.09,7.09,0,0,0-1.78,5v2.26A7.28,7.28,0,0,0,177.92,44a6.33,6.33,0,0,0,4.92,2,6.24,6.24,0,0,0,4.86-2,7.22,7.22,0,0,0,1.81-5.09ZM216,30.28a9.8,9.8,0,0,1,3,7.3,6.63,6.63,0,0,1-.37,2.46,2.34,2.34,0,0,1-1.16,1.33,4.61,4.61,0,0,1-1.44.48,14.12,14.12,0,0,1-1.84,0H201.16v2.38a7.14,7.14,0,0,0,2.55,5.65A9.71,9.71,0,0,0,210.27,52a9.39,9.39,0,0,0,3.45-.56,8.81,8.81,0,0,0,2.12-1.13,2.33,2.33,0,0,1,1.14-.57,1.14,1.14,0,0,1,.9.45,1.43,1.43,0,0,1,.4.91c0,.71-.8,1.47-2.35,2.26a12.72,12.72,0,0,1-5.66,1.19,12.33,12.33,0,0,1-8.48-2.83,9.58,9.58,0,0,1-3.28-7.58V37.61a9.69,9.69,0,0,1,2.94-7.19,10.41,10.41,0,0,1,14.56,0Zm.43,7.38a7.79,7.79,0,0,0-2.15-5.37,7,7,0,0,0-5.43-2.37,7.38,7.38,0,0,0-5.4,2.2,7.11,7.11,0,0,0-2.24,5.26V39.7h12.05a5.7,5.7,0,0,0,2.55-.39A2,2,0,0,0,216.44,37.66Zm18.67-7.46a1,1,0,0,0,.73-.37,1.17,1.17,0,0,0,.4-.82,1.43,1.43,0,0,0-.37-.88.88.88,0,0,0-.76-.36h-7.53V16a1,1,0,0,0-.42-.85,1.6,1.6,0,0,0-1-.34,1.49,1.49,0,0,0-.94.34,1.07,1.07,0,0,0-.42.85V46.38q0,8.1,8.49,8.09h1.41a1.26,1.26,0,0,0,.93-.4,1.31,1.31,0,0,0-.81-2.21h-1.42a6.57,6.57,0,0,1-4.53-1.1,5.68,5.68,0,0,1-1.3-4.24V30.2Zm20.11,13a7.35,7.35,0,0,0-3.54-2.38l-4.13-1.35a11.88,11.88,0,0,1-3.53-1.7,3.57,3.57,0,0,1-1.45-3,4.82,4.82,0,0,1,1.5-3.39,6.14,6.14,0,0,1,4.56-1.53,10.76,10.76,0,0,1,4,.76l2,.77a1.06,1.06,0,0,0,.84-.51,1.59,1.59,0,0,0,.4-1c0-.6-.76-1.19-2.29-1.73a14.9,14.9,0,0,0-5-.82,8.53,8.53,0,0,0-6.42,2.26A7.34,7.34,0,0,0,240,34.81a5.7,5.7,0,0,0,1.44,4.13A8.15,8.15,0,0,0,245,41.12l4.18,1.24a9.44,9.44,0,0,1,3.48,1.92A4.62,4.62,0,0,1,254,47.93a3.86,3.86,0,0,1-1.53,3.14,7.42,7.42,0,0,1-4.69,1.22,10.2,10.2,0,0,1-3.06-.43,9,9,0,0,1-2.09-.9l-1.3-.91a1.25,1.25,0,0,0-.91-.39.85.85,0,0,0-.7.42,1.41,1.41,0,0,0-.31.88c0,.88.82,1.72,2.46,2.57A13.15,13.15,0,0,0,248,54.81a10.12,10.12,0,0,0,6.5-1.87,6.22,6.22,0,0,0,2.21-5A6.94,6.94,0,0,0,255.22,43.18Z"
     id="path12"
     style="fill:#333333" />
</svg>
