<?xml version="1.0" encoding="UTF-8" standalone="no"?>
<svg
   xmlns:dc="http://purl.org/dc/elements/1.1/"
   xmlns:cc="http://creativecommons.org/ns#"
   xmlns:rdf="http://www.w3.org/1999/02/22-rdf-syntax-ns#"
   xmlns:svg="http://www.w3.org/2000/svg"
   xmlns="http://www.w3.org/2000/svg"
   xmlns:sodipodi="http://sodipodi.sourceforge.net/DTD/sodipodi-0.dtd"
   xmlns:inkscape="http://www.inkscape.org/namespaces/inkscape"
   id="Calque_1"
   data-name="Calque 1"
   viewBox="0 0 265 97.52"
   version="1.1"
   sodipodi:docname="jupyterlab-sidecar.svg"
   inkscape:version="0.92.3 (unknown)">
  <metadata
     id="metadata17">
    <rdf:RDF>
      <cc:Work
         rdf:about="">
        <dc:format>image/svg+xml</dc:format>
        <dc:type
           rdf:resource="http://purl.org/dc/dcmitype/StillImage" />
      </cc:Work>
    </rdf:RDF>
  </metadata>
  <sodipodi:namedview
     pagecolor="#ffffff"
     bordercolor="#666666"
     borderopacity="1"
     objecttolerance="10"
     gridtolerance="10"
     guidetolerance="10"
     inkscape:pageopacity="0"
     inkscape:pageshadow="2"
     inkscape:window-width="2044"
     inkscape:window-height="1076"
     id="namedview15"
     showgrid="false"
     inkscape:zoom="3.9918179"
     inkscape:cx="149.52935"
     inkscape:cy="26.889468"
     inkscape:window-x="0"
     inkscape:window-y="44"
     inkscape:window-maximized="0"
     inkscape:current-layer="Calque_1" />
  <defs
     id="defs4">
    <style
       id="style2">.cls-1{fill:#171729;}.cls-2{fill:#e93f67;}.cls-3{fill:#fff;}</style>
  </defs>
  <title
     id="title6">jlabsidecar</title>
  <path
     class="cls-2"
     d="M23.22,54.58a1,1,0,0,1-.8.39H13.69a1.37,1.37,0,0,1-.93-.33,1,1,0,0,1-.39-.83V12.51a1,1,0,0,1,.39-.83,1.37,1.37,0,0,1,.93-.33h8.73a1,1,0,0,1,.8.39,1.55,1.55,0,0,1,0,1.87,1,1,0,0,1-.77.39H15.13V52.32h7.29a1,1,0,0,1,.77.4,1.53,1.53,0,0,1,0,1.86Zm6.38-39a2.05,2.05,0,0,0-1.49.58,1.78,1.78,0,0,0-.61,1.35,1.93,1.93,0,0,0,.61,1.43,2,2,0,0,0,1.49.61,2.08,2.08,0,0,0,2-2A1.78,1.78,0,0,0,31,16.13,2,2,0,0,0,29.6,15.55Zm0,12.2c-.89,0-1.33.37-1.33,1.1v27.5a15.16,15.16,0,0,1-.88,5.91,3.48,3.48,0,0,1-3.54,2,1.31,1.31,0,0,0-.91.33,1.15,1.15,0,0,0-.36.89,1.25,1.25,0,0,0,.39.93,1.34,1.34,0,0,0,1,.39q7,0,7-10.44V28.85C31,28.12,30.52,27.75,29.6,27.75ZM40,11.52a1.37,1.37,0,0,0-.93.33,1,1,0,0,0-.39.82V52.6a1.1,1.1,0,0,0,.39.85,1.31,1.31,0,0,0,.93.36,1.37,1.37,0,0,0,1-.38,1.12,1.12,0,0,0,.41-.83V12.67a1,1,0,0,0-.38-.82A1.49,1.49,0,0,0,40,11.52ZM63.56,30.43A12.12,12.12,0,0,1,65.88,38V52.6a1.1,1.1,0,0,1-.39.85,1.41,1.41,0,0,1-1.88,0,1.09,1.09,0,0,1-.38-.85V50q-3.65,4.2-8.29,4.2a8.09,8.09,0,0,1-5.49-1.85,6.83,6.83,0,0,1-2.13-5.44c0-2.76,1.1-4.69,3.29-5.77s5.38-1.63,9.58-1.63h3V38a9.46,9.46,0,0,0-1.74-5.71,6,6,0,0,0-5.22-2.41,9.87,9.87,0,0,0-3.92.78c-1.21.51-1.84.77-1.87.77a1,1,0,0,1-.89-.5,1.77,1.77,0,0,1-.33-1c0-.63.76-1.21,2.29-1.74a14.65,14.65,0,0,1,4.83-.8Q61.24,27.42,63.56,30.43Zm-.39,11.24h-2.7c-1.59,0-2.91,0-4,.16a17.11,17.11,0,0,0-3.2.64A4.52,4.52,0,0,0,50.86,44,4.38,4.38,0,0,0,50,46.75a4.62,4.62,0,0,0,1.46,3.72,5.74,5.74,0,0,0,3.84,1.25,8.42,8.42,0,0,0,5.33-2q2.51-2,2.51-4ZM90,30.37a9.81,9.81,0,0,1,2.93,7.15v6.41a10,10,0,0,1-3,7.12,9.24,9.24,0,0,1-6.87,3.1,8.77,8.77,0,0,1-4.51-1.22,7.6,7.6,0,0,1-3-3V52.6a1.17,1.17,0,0,1-.39.83,1.27,1.27,0,0,1-.94.38,1.33,1.33,0,0,1-.94-.36,1.1,1.1,0,0,1-.39-.85V12.67a1,1,0,0,1,.39-.82,1.4,1.4,0,0,1,.94-.33,1.44,1.44,0,0,1,1,.33,1,1,0,0,1,.39.82V31.61A8.21,8.21,0,0,1,83,27.42,9.52,9.52,0,0,1,90,30.37Zm.22,7.15A7.4,7.4,0,0,0,88,32.28,6.92,6.92,0,0,0,82.83,30a7,7,0,0,0-5,2.1,7.25,7.25,0,0,0-2.18,5.46v8.29c0,1.07.74,2.3,2.21,3.7a7.09,7.09,0,0,0,5,2.1A6.86,6.86,0,0,0,88,49.26a7.59,7.59,0,0,0,2.21-5.33ZM106.3,11.68a1.4,1.4,0,0,0-.94-.33H96.63a1,1,0,0,0-.82.39,1.4,1.4,0,0,0-.33.91,1.47,1.47,0,0,0,.33,1,1,1,0,0,0,.82.39h7.29V52.32H96.63a1,1,0,0,0-.82.4,1.44,1.44,0,0,0-.33,1,1.35,1.35,0,0,0,.33.9,1,1,0,0,0,.82.39h8.73a1.4,1.4,0,0,0,.94-.33,1,1,0,0,0,.39-.83V12.51A1,1,0,0,0,106.3,11.68Z"
     id="path10" />
  <path
     class="cls-3"
     d="M128.14,42.78a6.85,6.85,0,0,1,1.41,4.52,6.09,6.09,0,0,1-2.27,5,9.86,9.86,0,0,1-6.35,1.83A12.83,12.83,0,0,1,115,52.9c-1.6-.83-2.4-1.66-2.4-2.51a1.42,1.42,0,0,1,.31-.86.86.86,0,0,1,.69-.41c.22,0,.51.09.88.39l1.27.88a8.11,8.11,0,0,0,2,.88,10,10,0,0,0,3.1.45,7.29,7.29,0,0,0,4.58-1.19A3.75,3.75,0,0,0,127,47.46a4.49,4.49,0,0,0-1.4-3.49,8.93,8.93,0,0,0-3.41-1.89l-4.07-1.23a7.75,7.75,0,0,1-3.46-2.11,5.64,5.64,0,0,1-1.41-4,7.09,7.09,0,0,1,2.13-5.08c1.41-1.48,3.5-2.21,6.26-2.21a14.37,14.37,0,0,1,4.84.8c1.49.53,2.23,1.1,2.23,1.68a1.58,1.58,0,0,1-.38.94,1.09,1.09,0,0,1-.83.5s-.68-.25-1.93-.75a10.6,10.6,0,0,0-3.87-.74,6,6,0,0,0-4.45,1.49,4.65,4.65,0,0,0-1.46,3.31,3.43,3.43,0,0,0,1.41,2.92,10.91,10.91,0,0,0,3.44,1.66c1.35.42,2.72.83,4.09,1.24A7.18,7.18,0,0,1,128.14,42.78Zm8.36-27.23a2.07,2.07,0,0,0-1.49.58,1.81,1.81,0,0,0-.61,1.35,2,2,0,0,0,.61,1.43,2,2,0,0,0,1.49.61,2.08,2.08,0,0,0,2.05-2,1.81,1.81,0,0,0-.61-1.35A2,2,0,0,0,136.5,15.55Zm0,12.2c-.88,0-1.32.37-1.32,1.1V52.6a1.12,1.12,0,0,0,.38.85,1.35,1.35,0,0,0,.94.36,1.37,1.37,0,0,0,1-.38,1.12,1.12,0,0,0,.41-.83V28.85C137.88,28.12,137.42,27.75,136.5,27.75Zm27.28-15.9a1,1,0,0,1,.39.82V52.6a1.1,1.1,0,0,1-.39.85,1.33,1.33,0,0,1-.94.36,1.24,1.24,0,0,1-.93-.38,1.17,1.17,0,0,1-.39-.83V50a7.7,7.7,0,0,1-3,3,8.74,8.74,0,0,1-4.5,1.22,9.25,9.25,0,0,1-6.88-3.1,10,10,0,0,1-2.95-7.12V37.52a9.77,9.77,0,0,1,2.93-7.15,9.5,9.5,0,0,1,7-2.95,8.21,8.21,0,0,1,7.34,4.19V12.67a1,1,0,0,1,.39-.82,1.48,1.48,0,0,1,1-.33A1.4,1.4,0,0,1,163.78,11.85Zm-2.32,25.67a7.22,7.22,0,0,0-2.18-5.46,7,7,0,0,0-10.19.22,7.39,7.39,0,0,0-2.2,5.24v6.41a7.58,7.58,0,0,0,2.2,5.33,6.89,6.89,0,0,0,5.14,2.35,7.08,7.08,0,0,0,5-2.1c1.48-1.4,2.21-2.63,2.21-3.7Zm26.19-7.23a9.5,9.5,0,0,1,3,7.12,6.69,6.69,0,0,1-.36,2.41,2.3,2.3,0,0,1-1.13,1.29,4.27,4.27,0,0,1-1.4.47,13.54,13.54,0,0,1-1.79.09H173.17V44a6.93,6.93,0,0,0,2.49,5.58,9.56,9.56,0,0,0,6.4,2.1A9,9,0,0,0,187.52,50a2.16,2.16,0,0,1,1.1-.55,1.12,1.12,0,0,1,.86.44,1.34,1.34,0,0,1,.38.89c0,.7-.76,1.43-2.28,2.21A12.35,12.35,0,0,1,182,54.15a12.05,12.05,0,0,1-8.28-2.82,9.37,9.37,0,0,1-3.21-7.4V37.36a9.46,9.46,0,0,1,3-7,10.14,10.14,0,0,1,14.2-.06Zm.37,7.12a7.62,7.62,0,0,0-2.09-5.24,6.84,6.84,0,0,0-5.3-2.32A7.26,7.26,0,0,0,175.35,32a7,7,0,0,0-2.18,5.14V39.4h11.76a5.42,5.42,0,0,0,2.49-.38A1.8,1.8,0,0,0,188,37.41Zm24.36,12a2.16,2.16,0,0,0-1,.55,8.7,8.7,0,0,1-2.1,1.1,8.88,8.88,0,0,1-3.31.56,7.8,7.8,0,0,1-5.8-2,7.69,7.69,0,0,1-2-5.66v-6.3a7.64,7.64,0,0,1,2-5.63,7.65,7.65,0,0,1,5.71-2,8.14,8.14,0,0,1,3.15.55,9.47,9.47,0,0,1,2,1.08,2.15,2.15,0,0,0,1,.52,1.18,1.18,0,0,0,.88-.41,1.31,1.31,0,0,0,.39-.91c0-.74-.72-1.48-2.15-2.24a11.38,11.38,0,0,0-5.3-1.13c-3.43,0-6,.95-7.76,2.84a10.46,10.46,0,0,0-2.63,7.37v6.3a10.39,10.39,0,0,0,2.65,7.4q2.66,2.82,7.74,2.82A12.12,12.12,0,0,0,211.35,53c1.5-.75,2.24-1.52,2.24-2.29a1.37,1.37,0,0,0-.36-.91A1.07,1.07,0,0,0,212.38,49.4Zm20.81-19A12.06,12.06,0,0,1,235.51,38V52.6a1.12,1.12,0,0,1-.38.85,1.41,1.41,0,0,1-1.88,0,1.1,1.1,0,0,1-.39-.85V50q-3.65,4.2-8.28,4.2a8.05,8.05,0,0,1-5.49-1.85A6.83,6.83,0,0,1,217,46.86c0-2.76,1.09-4.69,3.29-5.77s5.38-1.63,9.58-1.63h3V38a9.46,9.46,0,0,0-1.74-5.71,6,6,0,0,0-5.22-2.41,9.83,9.83,0,0,0-3.92.78c-1.22.51-1.84.77-1.88.77a1,1,0,0,1-.88-.5,1.77,1.77,0,0,1-.33-1c0-.63.76-1.21,2.29-1.74a14.65,14.65,0,0,1,4.83-.8Q230.88,27.42,233.19,30.43Zm-.38,11.24H230.1c-1.58,0-2.91,0-4,.16a17.38,17.38,0,0,0-3.21.64A4.56,4.56,0,0,0,220.49,44a4.38,4.38,0,0,0-.82,2.74,4.58,4.58,0,0,0,1.46,3.72A5.7,5.7,0,0,0,225,51.72a8.44,8.44,0,0,0,5.33-2q2.5-2,2.51-4Zm22.78-13.89a1.18,1.18,0,0,0-.86-.36h-2a8.43,8.43,0,0,0-4.55,1.21,8.27,8.27,0,0,0-3,3V28.85a1,1,0,0,0-.38-.8,1.49,1.49,0,0,0-.94-.3c-.89,0-1.33.37-1.33,1.1V52.6a1.1,1.1,0,0,0,.39.85,1.4,1.4,0,0,0,1.9,0,1.14,1.14,0,0,0,.42-.83V38a7.91,7.91,0,0,1,2.23-5.83A7.18,7.18,0,0,1,252.74,30h2a1.18,1.18,0,0,0,.86-.36,1.33,1.33,0,0,0,0-1.82Z"
     id="path12"
     style="fill:#333333" />
</svg>
