<?xml version="1.0" encoding="utf-8"?>
<!-- Generator: Adobe Illustrator 21.1.0, SVG Export Plug-In . SVG Version: 6.00 Build 0)  -->
<svg version="1.1" id="Calque_1" xmlns="http://www.w3.org/2000/svg" xmlns:xlink="http://www.w3.org/1999/xlink" x="0px" y="0px"
	 viewBox="0 0 239.9 48.5" style="enable-background:new 0 0 239.9 48.5;" width="770.556745" height="155.781585" xml:space="preserve">
<style type="text/css">
	.st0{fill:#EE6918;}
	.st1{opacity:0.28;fill:#EE6918;}
</style>
<g>
	<path class="st0" d="M39.2,6.4c-1.5,0.9-2.6,2.1-3.5,3.4C35.2,10.4,29,19.7,25.6,25c-2.9,4.4-10.3,15.5-10.8,16.2
		c-1.2,2-2.9,3.8-4.8,5.1c0,0.1-2.1,1.3-4.6,2.1c-0.2,0-0.4,0.1-0.5,0.1h36.8c-0.1,0-0.2-0.1-0.4-0.1c-2.5-0.8-4.5-2-4.6-2.1
		c-1.9-1.3-3.6-3.1-4.8-5.1c-0.4-0.6-5.2-7.8-8.6-12.9c0.8-1.2,1.5-2.3,2.1-3.1c0,0.1,0.1,0.1,0.1,0.2C29,30.7,35.2,40,35.6,40.6
		c0.9,1.3,2,2.5,3.5,3.4c0,0,1.5,1,3.5,1.6c0.8,0.3,2.2,0.5,4,0.7v2.1h0.1V4c-1.8,0.2-3.2,0.4-4,0.7C40.7,5.3,39.2,6.4,39.2,6.4z
		 M11,40.6c0.4-0.7,6.6-9.9,10.1-15.2C24,21,31.4,9.9,31.9,9.2c1.2-2,2.9-3.8,4.8-5.1c0-0.1,2.1-1.3,4.6-2.1c0.2,0,0.4-0.1,0.5-0.1
		H5c0.1,0,0.3,0.1,0.4,0.1c2.5,0.8,4.5,2,4.6,2.1c1.9,1.3,3.6,3.1,4.8,5.1c0.4,0.6,5.2,7.8,8.6,12.9c-0.8,1.2-1.5,2.3-2.1,3.1
		c0-0.1-0.1-0.1-0.1-0.2C17.6,19.7,11.4,10.4,11,9.8c-0.9-1.3-2-2.5-3.5-3.4c0,0-1.5-1-3.5-1.6C3.2,4.5,1.8,4.2,0,4v42.4
		c1.8-0.2,3.2-0.4,4-0.7c2-0.6,3.5-1.6,3.5-1.6C9,43.1,10.2,41.9,11,40.6z"/>
	<path class="st1" d="M25.4,25.2c-0.6,0.8-1.3,1.9-2.1,3.1c3.4,5.1,8.1,12.3,8.6,12.9c1.2,2,2.9,3.8,4.8,5.1c0,0.1,2.1,1.3,4.6,2.1
		c0.2,0,0.4,0.1,0.5,0.1h4.8v-2.2c-1.8-0.2-3.2-0.4-4-0.7c-2-0.6-3.5-1.6-3.5-1.6c-1.5-0.9-2.6-2.1-3.5-3.4
		C35.2,40,29,30.7,25.5,25.4l0,0C25.5,25.3,25.5,25.3,25.4,25.2 M4.8,1.8H0V4c1.8,0.2,3.2,0.4,4,0.7c2,0.6,3.5,1.6,3.5,1.6
		C9,7.3,10.1,8.5,11,9.8c0.4,0.7,6.6,9.9,10.1,15.2l0,0c0,0.1,0.1,0.1,0.1,0.2c0.6-0.8,1.3-1.9,2.1-3.1c-3.4-5.1-8.1-12.3-8.6-12.9
		c-1.2-2-2.9-3.8-4.8-5.1C9.9,4,7.9,2.8,5.4,2C5.2,1.9,5,1.9,4.8,1.8"/>
	<path class="st0" d="M74.8,11.7l2.3,0.5l-9.9,29.9h-2.7l-10-30l2.5-0.5l8.9,27.9L74.8,11.7z M121,0l-2.3,0.4v31.4
		c0,3.9,0.2,7.5,1,10.4h2.3c-0.8-2.9-1-6.6-1-10.3V0z M239.9,26.6v0.8l0,0l-20.8,0l0,1.2c0.4,9.5,4.6,11.5,10,11.5
		c3.3,0,5.9-0.6,8.7-2.2l0.9,2c-2.8,1.7-6,2.3-9.6,2.3c-6.8,0-12.3-2.8-12.3-15.5c0-13.6,6.4-15.6,11.8-15.6
		C235.6,11.1,239.9,14.9,239.9,26.6z M237.5,25.2c0-9.2-3.6-12-9-12c-4.9,0-9.3,1.9-9.5,12H237.5z M196.9,11.1h-1.3
		c-5.1,0-7.6,2.5-8.9,5.8c-1.3-3.4-3.8-5.8-8.9-5.8h-1.3c-8.8,0-10,7.4-10,13.8v15.6c0.7,0.6,1.5,1.1,2.4,1.5V25.7
		c0-7.3,1.1-12.4,8-12.4h0.6c6.9,0,8,5.1,8,12.4v14.7l2.4-0.1V25.7c0-7.3,1.1-12.4,8-12.4h0.6c6.9,0,8,5.1,8,12.4v16.4
		c0.8-0.4,1.7-0.9,2.4-1.5V25C206.9,18.4,205.6,11.1,196.9,11.1z M153.2,27.5c0,7.3-1.1,12.5-8,12.5h-0.6c-6.9,0-8-5.1-8-12.5V11.1
		c-0.8,0.4-1.7,0.9-2.4,1.5v15.6c0,6.5,1.2,13.9,10,13.9h1.3c8.7,0,10-7.4,10.1-14V12.6c-0.7-0.6-1.5-1.1-2.4-1.5V27.5z M107.8,26.8
		c0,10.5-3.5,15.3-12.2,15.3c-8.8,0-12.2-4.9-12.2-15.3c0-10.5,3.5-15.3,12.2-15.3C104.3,11.4,107.8,16.3,107.8,26.8z M105.5,26.8
		c0-8-1.7-13.3-10-13.3c-8.3,0-10,5.3-10,13.3s1.7,13.3,10,13.3C103.8,40,105.5,34.7,105.5,26.8z"/>
</g>
</svg>
