<svg id="Calque_1" data-name="Calque 1" xmlns="http://www.w3.org/2000/svg" viewBox="0 0 500 500"><defs><style>.cls-1{fill:#fff;}.cls-2{fill:#5dbcaf;}.cls-3{fill:#f8e14b;}</style></defs><title>BLEU-logo-blanc</title><rect class="cls-1" width="500" height="500"/><path class="cls-2" d="M125.74,221.94a17.88,17.88,0,0,1-2.08.11,19.6,19.6,0,0,1-2.06-.12l-.39,0,0,.39a54.73,54.73,0,0,1-2.1,19.46,90.37,90.37,0,0,1-14.66,28.5,94.47,94.47,0,0,1-17,17.44c-6.64,5-12.85,7.48-18.46,7.48-4.27,0-7.7-.76-10.19-2.26a18.89,18.89,0,0,1-5.61-4.72c-5-6.37-6.21-17.09-3.47-31.87C51.66,244.78,56.1,229.87,63,212a4.86,4.86,0,0,1,2.71-2.88,5.93,5.93,0,0,1,2.44-.55,6.37,6.37,0,0,1,1.77.26,6.7,6.7,0,0,1,3.23,2.79,3.47,3.47,0,0,1,.15,3.51l0,.1a294.37,294.37,0,0,0-10,30.47,126.44,126.44,0,0,0-3.72,19.75c-.41,5.14-.28,8.92.4,11.57a17.09,17.09,0,0,0,2.21,5.6,8.08,8.08,0,0,0,2.36,1.9,9.62,9.62,0,0,0,4.56.85c2.89,0,6.72-1.73,11.7-5.28,4.77-3.41,9.63-8.47,14.43-15a91,91,0,0,0,7.23-11.25A76.07,76.07,0,0,0,108,241a51.89,51.89,0,0,0,2.57-13.18,27,27,0,0,0-2.16-12.45,3.67,3.67,0,0,1,.07-3.54,5.94,5.94,0,0,1,1-1.3l0-.06a4.61,4.61,0,0,1,4-2.1,5,5,0,0,1,3.07,1.08,5.51,5.51,0,0,1,1.24,1,10.44,10.44,0,0,0,5.93,1.93c.35,0,.69,0,1-.05a10.5,10.5,0,0,0,6.61-3.54,4.87,4.87,0,0,1,6.86-.55,4.87,4.87,0,0,1,.56,6.86A20.19,20.19,0,0,1,125.74,221.94Zm124.17-27.83a5.25,5.25,0,0,0,6.44-3.74,31.38,31.38,0,0,1,1.95-5.29,31.82,31.82,0,0,1,2.23-3.89,5.27,5.27,0,0,0-8.73-5.89,39.41,39.41,0,0,0-3,5.24,40.69,40.69,0,0,0-2.63,7.13,5.28,5.28,0,0,0,3.74,6.44Zm-34.14,41.61c1.69,21.74-13.42,50.21-38.62,57.93A43.93,43.93,0,0,1,164,295.93a26.29,26.29,0,0,1-13.73-3.62C140.49,286.4,138,275.68,137,271.64c-4.77-20.24,7.94-38.52,13.63-45.43,4.11-5,19-21.14,38.71-18.9,3.47.39,12.7,1.45,19.51,9.76C214.26,223.66,215.39,230.87,215.77,235.72Zm-10.67.83c-.29-3.7-1.06-8.49-4.51-12.7-4.06-5-9.73-5.61-12.45-5.92a23.65,23.65,0,0,0-2.52-.14c-13.18,0-23.78,11.64-26.71,15.21-4.68,5.69-15.16,20.6-11.49,36.19.73,3.1,2.44,10.37,8.4,13.95,6.44,3.88,14.38,1.45,18.19.29l.05.15-.05-.15C194,277.29,206.45,253.8,205.1,236.55Zm246.46,26.86c-.79,2.87-8.34,28.12-28.45,32.06a30.74,30.74,0,0,1-5.83.59,20.57,20.57,0,0,1-11.73-3.4c-6.52-4.38-10.11-12.51-9.66-21.81l-2,2.42a80.45,80.45,0,0,1-6.27,6.7c-2.16,2-4.35,3.93-6.51,5.63a46.64,46.64,0,0,1-15.87,8.2,24.58,24.58,0,0,1-14.92.24,19.15,19.15,0,0,1-7.8-5,21.75,21.75,0,0,1-4.75-8.28,26.43,26.43,0,0,1-1.22-6.8,83,83,0,0,1-12.87,11.5c-6.31,4.54-12.43,6.84-18.19,6.84-4.54,0-8.09-.82-10.56-2.44a19.6,19.6,0,0,1-5.63-5.13c-2.55-3.6-4-8.48-4.42-14.53-1.61,1.86-3.14,3.53-4.67,5.11a101.11,101.11,0,0,1-15.6,13.39c-7,4.41-13.66,6.64-19.75,6.64-4.6,0-8.29-.75-11-2.24a20.54,20.54,0,0,1-6.1-4.73c-5.51-6.43-6.79-17.23-3.8-32.09,2-11.55,6.85-26.48,14.31-44.36a5.17,5.17,0,0,1,3-3,6.66,6.66,0,0,1,4.5-.27,6.46,6.46,0,0,1,3.55,2.75,3.69,3.69,0,0,1,.08,3.81l0,.08a278.32,278.32,0,0,0-10.83,30.46,115.62,115.62,0,0,0-4,19.81c-.45,5.17-.31,8.92.43,11.47a16,16,0,0,0,2.29,5.33l.05.06a8.31,8.31,0,0,0,2.55,1.89,11.28,11.28,0,0,0,5,.87c3.5,0,7.45-1.41,12.08-4.3a73.57,73.57,0,0,0,13.92-11.84c2.07-2.18,4-4.37,5.62-6.5,1.39-1.79,2.35-2.92,3-3.74s1-1.18,1.42-1.74a61.19,61.19,0,0,0,3.84-5.85,52,52,0,0,0,3.11-6.58c1.5-6.36,3.55-13.46,6.09-21.09,2.34-6.73,4.93-13.67,7.67-20.63s5.54-13.76,8.39-20.43,13.24-29.51,16-35.37l7.8-16.64a5.55,5.55,0,0,1,3.1-2.74,5.67,5.67,0,0,1,2.11-.42,6,6,0,0,1,2.14.41,5.1,5.1,0,0,1,2.86,2.88,4.53,4.53,0,0,1-.09,3.91c-14.18,29.83-32.74,72.34-39.27,91.85-4.59,13.45-7.39,24.68-8.34,33.37-.82,6.14-.89,10.51-.22,13.36a16.54,16.54,0,0,0,2.32,5.95,6,6,0,0,0,2.28,2.1,9.39,9.39,0,0,0,4.77,1c3.23,0,6.87-1.44,11.15-4.41a73.32,73.32,0,0,0,12.82-11.94l.62-.71c1.27-1.43,2.84-3.22,4.64-5.63a80.62,80.62,0,0,0,5.06-7.77l1.16-1.94c6.3-10.44,8.5-13.15,9.61-14.28a90.3,90.3,0,0,1,9.13-10c4.62-4.38,11-10.38,20.75-13.87a44.09,44.09,0,0,1,5-1.45l.88-.22c7.2-2.08,13.31-1.85,18.68.71a19.94,19.94,0,0,1,9.56,8.66c3.24,6.23,2.56,13.48-2.32,25a75.31,75.31,0,0,0-4.64,25.65,34.47,34.47,0,0,0,.9,8.81l0,.12-.1.06-.14.09h0a9.92,9.92,0,0,0,3.48,4.41c3.36,2.27,7.6,1.44,9.2,1.12,13.84-2.71,19.83-23.9,19.89-24.11a5.56,5.56,0,0,1,6.84-3.87,5.54,5.54,0,0,1,3.87,6.84Zm-46.86-39a9.27,9.27,0,0,0-4.48-3.75c-4.39-2.09-9.23-.7-14.22,1-13.19,4.61-23,15.31-28.83,23.47l-.09.13,0,0A60.44,60.44,0,0,0,349.78,261c-1.8,5.82-2.37,10.9-1.71,15.08.73,4.56,2.74,7.4,6,8.45,2,.67,4.73.58,8.19-.29s7.27-2.93,11.7-6.24a101.4,101.4,0,0,0,12.75-12.75,102.76,102.76,0,0,0,12.66-19.48C404.08,235.87,406.8,228.44,404.7,224.4Z"/><path class="cls-3" d="M429.87,199.66a43.43,43.43,0,0,1-43.38-43.38,5.59,5.59,0,0,1,11.17,0,32.24,32.24,0,0,0,32.21,32.2,5.59,5.59,0,0,1,0,11.18Z"/></svg>