<?xml version="1.0" encoding="UTF-8" standalone="no"?>
<!-- Generator: Adobe Illustrator 21.1.0, SVG Export Plug-In . SVG Version: 6.00 Build 0)  -->

<svg
   xmlns:dc="http://purl.org/dc/elements/1.1/"
   xmlns:cc="http://creativecommons.org/ns#"
   xmlns:rdf="http://www.w3.org/1999/02/22-rdf-syntax-ns#"
   xmlns:svg="http://www.w3.org/2000/svg"
   xmlns="http://www.w3.org/2000/svg"
   xmlns:sodipodi="http://sodipodi.sourceforge.net/DTD/sodipodi-0.dtd"
   xmlns:inkscape="http://www.inkscape.org/namespaces/inkscape"
   version="1.1"
   id="Calque_1"
   x="0px"
   y="0px"
   viewBox="0 0 246.00001 53"
   xml:space="preserve"
   inkscape:version="0.91 r13725"
   sodipodi:docname="xthreejs.svg"
   width="791.85"
   height="170.60"><metadata
     id="metadata17"><rdf:RDF><cc:Work
         rdf:about=""><dc:format>image/svg+xml</dc:format><dc:type
           rdf:resource="http://purl.org/dc/dcmitype/StillImage" /><dc:title></dc:title></cc:Work></rdf:RDF></metadata><defs
     id="defs15" /><sodipodi:namedview
     pagecolor="#ffffff"
     bordercolor="#666666"
     borderopacity="1"
     objecttolerance="10"
     gridtolerance="10"
     guidetolerance="10"
     inkscape:pageopacity="0"
     inkscape:pageshadow="2"
     inkscape:window-width="1090"
     inkscape:window-height="608"
     id="namedview13"
     showgrid="false"
     fit-margin-top="0"
     fit-margin-left="0"
     fit-margin-right="0"
     fit-margin-bottom="0"
     inkscape:zoom="1.2810086"
     inkscape:cx="122.95"
     inkscape:cy="26.5"
     inkscape:window-x="0"
     inkscape:window-y="23"
     inkscape:window-maximized="0"
     inkscape:current-layer="Calque_1" /><style
     type="text/css"
     id="style3">
	.st0{fill:#EA3F67;}
	.st1{opacity:0.28;fill:#EA3F67;enable-background:new    ;}
</style><path
     class="st0"
     d="m 122.7,17 0,-4.2 c -0.8,0.1 -1.6,0.3 -2.3,0.5 l 0,29.7 c 0.7,0.2 1.5,0.4 2.3,0.5 l 0,-15.6 c 0,-8.1 1.7,-13.4 10.1,-13.4 l 0,0 -1.1,-2 c -4.3,0.1 -7.2,1.6 -9,4.5 z M 66.6,35.4 c -0.5,-1.1 -0.7,-2.3 -0.7,-3.5 0,-0.8 0,-17.4 0,-17.4 l 8.4,0 -1.1,-2.1 -7.3,0 0,-7.7 -2.3,0 0,7.6 -7.4,0 -1.2,2.2 8.5,0 c 0,0 0,15.8 0,16.7 -0.1,1.8 0.2,3.6 0.8,5.1 0,0.1 0.7,1.5 1.8,2.9 0.6,0.6 1.7,1.6 3.2,2.7 l 1.1,-2.2 c -1.2,-0.8 -2,-1.5 -2.5,-2 -0.8,-1.1 -1.3,-2.3 -1.3,-2.3 z m 7.7,-20.8 0,-0.1 -0.1,0 0.1,0.1 z m 162.2,12 c -4.6,-1.3 -7.4,-2.5 -7.4,-6.3 0,-4.4 3,-5.7 7,-5.7 2.6,0 5,0.4 7.2,1.5 l 0.9,-2 c -2.6,-1.3 -5.4,-1.6 -8.1,-1.6 -4.8,0 -9.2,2.2 -9.2,7.7 0,5.6 3.9,7.3 8.7,8.5 4.5,1.2 8.1,2.2 8.1,6.2 0,4.9 -3.5,6.5 -7.4,6.5 -3.5,0 -6.9,-0.9 -9.4,-2.6 l -1,1.9 c 3,2 6.6,2.7 10.5,2.7 5.1,0 9.6,-2.3 9.6,-8.5 -0.1,-5.6 -4.4,-6.9 -9.5,-8.3 z M 151.9,12.4 c -5.4,0 -11.8,2 -11.8,15.6 0,12.6 5.5,15.5 12.3,15.5 3.7,0 6.9,-0.7 9.6,-2.3 l -0.9,-2 c -2.8,1.6 -5.4,2.2 -8.7,2.2 -5.4,0 -9.6,-1.9 -10,-11.5 l 0,-1.2 20.8,0 0,0 0,-0.8 c 0,-11.7 -4.3,-15.5 -11.3,-15.5 z m -9.6,14.1 c 0.2,-10.2 4.7,-12 9.5,-12 5.3,0 9,2.8 9,12 l -18.5,0 z m 42.6,14.8 c -5.4,0 -9.6,-1.9 -10,-11.5 l 0,-1.2 20.8,0 0,0 0,-0.8 c 0,-11.7 -4.3,-15.6 -11.3,-15.6 -5.4,0 -11.8,2 -11.8,15.6 0,12.6 5.5,15.5 12.3,15.5 3.7,0 6.9,-0.7 9.6,-2.3 l -0.9,-2 c -2.7,1.7 -5.4,2.3 -8.7,2.3 z m -0.5,-26.8 c 5.3,0 9,2.8 9,12 l -18.5,0 c 0.1,-10.1 4.6,-12 9.5,-12 z m 27.2,-8.6 2.4,0 0,2.5 -2.4,0 0,-2.5 z m -114.8,6.4 -1.3,0 c -3.8,0 -6.2,1.4 -7.6,3.5 l 0,-15.8 -2.3,0.4 0,25.9 0,5.5 0,10.1 c 0.7,0.6 1.5,1.1 2.4,1.5 L 88,27 c 0,-7.3 1.1,-12.5 8,-12.5 l 0.6,0 c 6.9,0 8,5.1 8,12.5 l 0,16.5 c 0.8,-0.4 1.7,-0.9 2.4,-1.5 l 0,-15.7 c -0.3,-6.6 -1.5,-14 -10.2,-14 z m 114.9,29.9 c 0,5.1 -2,8.7 -7.9,8.7 -2.5,0 -5,-0.5 -7.3,-1.6 l -0.8,2.1 c 2.5,1.2 5.4,1.6 8.3,1.6 7,0 10,-4.2 10,-10.7 l 0,-29.7 -2.3,0 0,29.6 z"
     id="path5"
     inkscape:connector-curvature="0"
     style="fill:#ea3f67" /><g
     id="Calque_2"><g
       id="Calque_1-2"><path
         class="st0"
         d="m 39.2,4.5 c -1.4,0.9 -2.6,2 -3.5,3.4 -0.4,0.7 -6.6,10 -10.1,15.2 -2.9,4.4 -10.3,15.5 -10.8,16.2 -1.2,2 -2.9,3.8 -4.8,5.1 -1.4,0.9 -3,1.6 -4.6,2.1 l -0.5,0.1 36.8,0 -0.3,-0.1 c -1.6,-0.5 -3.1,-1.2 -4.5,-2.1 -2,-1.3 -3.6,-3.1 -4.8,-5.1 -0.4,-0.6 -5.2,-7.8 -8.6,-12.9 0.8,-1.2 1.5,-2.3 2.1,-3.1 0,0.1 0.1,0.1 0.1,0.2 3.5,5.3 9.7,14.6 10.1,15.2 0.9,1.4 2.1,2.5 3.5,3.4 1.1,0.7 2.3,1.2 3.5,1.6 1.3,0.4 2.8,0.6 4.1,0.7 l 0,0 0,0 0,-42.2 c -1.4,0.1 -2.7,0.4 -4,0.7 -1.4,0.4 -2.6,0.9 -3.7,1.6 z M 11,38.8 C 11.4,38.1 17.6,28.8 21.1,23.6 24,19.1 31.4,8.1 31.9,7.3 c 1.2,-2 2.9,-3.8 4.8,-5.1 1.4,-0.9 3,-1.6 4.5,-2.1 L 41.8,0 5,0 5.4,0.1 c 1.6,0.5 3.1,1.2 4.5,2.1 2,1.3 3.6,3.1 4.8,5.1 0.4,0.6 5.2,7.8 8.6,12.9 -0.8,1.2 -1.5,2.3 -2.1,3.1 0,-0.1 -0.1,-0.1 -0.1,-0.2 C 17.6,17.9 11.4,8.6 11,7.9 10.1,6.5 8.9,5.4 7.5,4.5 6.4,3.8 5.2,3.3 4,2.9 2.7,2.5 1.4,2.3 0,2.2 l 0,42.4 c 1.4,-0.1 2.7,-0.4 4,-0.7 1.2,-0.4 2.4,-0.9 3.5,-1.6 1.4,-1 2.6,-2.2 3.5,-3.5 z"
         id="path9"
         inkscape:connector-curvature="0"
         style="fill:#ea3f67" /><path
         class="st1"
         d="m 25.4,23.3 c -0.6,0.8 -1.3,2 -2.1,3.1 3.4,5.1 8.1,12.3 8.6,12.9 1.2,2 2.9,3.8 4.8,5.1 1.4,0.9 3,1.6 4.5,2.1 l 0.5,0.1 5,0 0,-2.2 C 45.3,44.3 43.9,44 42.6,43.7 41.4,43.3 40.2,42.8 39.1,42.1 37.7,41.2 36.5,40.1 35.6,38.7 35.2,38 29,28.7 25.5,23.5 l 0,0 c 0,0 0,-0.1 -0.1,-0.2 M 5.2,0 0,0 0,2.2 c 1.4,0.1 2.7,0.4 4,0.7 1.2,0.4 2.4,0.9 3.5,1.6 1.4,0.9 2.6,2 3.5,3.4 0.4,0.7 6.6,10 10.1,15.2 l 0,0 c 0,0.1 0.1,0.1 0.1,0.2 0.6,-0.8 1.3,-2 2.1,-3.1 C 19.9,15.1 15.2,7.9 14.7,7.3 13.5,5.3 11.8,3.6 9.9,2.2 8.5,1.3 7.1,0.6 5.5,0.1 L 5.2,0"
         id="path11"
         inkscape:connector-curvature="0"
         style="opacity:0.28000004;fill:#ea3f67;enable-background:new" /></g></g></svg>
