<?xml version="1.0" encoding="UTF-8" standalone="no"?>
<!-- Generator: Adobe Illustrator 19.2.1, SVG Export Plug-In . SVG Version: 6.00 Build 0)  -->

<svg
   xmlns:dc="http://purl.org/dc/elements/1.1/"
   xmlns:cc="http://creativecommons.org/ns#"
   xmlns:rdf="http://www.w3.org/1999/02/22-rdf-syntax-ns#"
   xmlns:svg="http://www.w3.org/2000/svg"
   xmlns="http://www.w3.org/2000/svg"
   xmlns:sodipodi="http://sodipodi.sourceforge.net/DTD/sodipodi-0.dtd"
   xmlns:inkscape="http://www.inkscape.org/namespaces/inkscape"
   version="1.1"
   id="Calque_1"
   x="0px"
   y="0px"
   viewBox="0 0 583.11518 132.54774"
   xml:space="preserve"
   inkscape:version="0.91 r13725"
   sodipodi:docname="xproperty.svg"
   width="583.11517"
   height="132.54774"><metadata
     id="metadata15"><rdf:RDF><cc:Work
         rdf:about=""><dc:format>image/svg+xml</dc:format><dc:type
           rdf:resource="http://purl.org/dc/dcmitype/StillImage" /><dc:title /></cc:Work></rdf:RDF></metadata><defs
     id="defs13" /><sodipodi:namedview
     pagecolor="#ffffff"
     bordercolor="#666666"
     borderopacity="1"
     objecttolerance="10"
     gridtolerance="10"
     guidetolerance="10"
     inkscape:pageopacity="0"
     inkscape:pageshadow="2"
     inkscape:window-width="1680"
     inkscape:window-height="771"
     id="namedview11"
     showgrid="false"
     fit-margin-top="0"
     fit-margin-left="0"
     fit-margin-right="0"
     fit-margin-bottom="0"
     inkscape:zoom="2.0887812"
     inkscape:cx="191.62694"
     inkscape:cy="62.539392"
     inkscape:window-x="108"
     inkscape:window-y="113"
     inkscape:window-maximized="0"
     inkscape:current-layer="g5" /><style
     type="text/css"
     id="style3">
	.st0{fill:#3FB4C5;}
	.st1{fill:#C5E4ED;}
</style><g
     id="g5"
     transform="translate(0,-197.39999)"><path
       style="fill:#ff8f45;fill-opacity:1"
       d="M 10.900391 0 C 11.400391 0.1 11.799609 0.20039063 12.099609 0.40039062 C 17.699609 2.2003906 22.300391 4.8996094 22.400391 5.0996094 C 26.900391 8.0996094 30.600391 11.999609 33.400391 16.599609 C 34.299779 17.998658 45.088138 34.180932 52.787109 45.779297 C 60.446235 34.21437 71.244475 17.932116 72.199219 16.5 C 74.999219 11.9 78.699219 8 83.199219 5 C 83.299219 4.8 87.9 2.1007812 93.5 0.30078125 L 94.699219 0 L 10.900391 0 z M 0 4.9003906 L 0 100.80078 C 4.1 100.30078 7.2 99.799219 9 99.199219 C 13.5 97.799219 17 95.5 17 95.5 C 20.4 93.4 23.000391 90.700781 24.900391 87.800781 C 25.900391 86.300781 39.900781 65.300781 47.800781 53.300781 C 47.877462 53.184599 48.004644 52.993219 48.083984 52.873047 C 47.98939 52.693532 47.895376 52.589579 47.800781 52.400391 C 39.900781 40.400391 25.900391 19.400391 24.900391 17.900391 C 22.900391 15.000391 20.3 12.299219 17 10.199219 C 17 10.199219 13.5 7.9 9 6.5 C 7.2 5.9 4.1 5.4003906 0 4.9003906 z M 105.80078 4.9003906 C 101.70078 5.4003906 98.600781 5.9 96.800781 6.5 C 92.100781 7.9 88.699219 10.199219 88.699219 10.199219 C 85.399219 12.299219 82.800781 15.000391 80.800781 17.900391 C 79.800781 19.400391 65.800391 40.400391 57.900391 52.400391 C 57.823953 52.516206 57.696269 52.706392 57.617188 52.826172 C 57.711419 53.004079 57.806159 53.104987 57.900391 53.199219 C 65.800391 65.199219 79.800781 86.199219 80.800781 87.699219 C 82.800781 90.599219 85.299219 93.300391 88.699219 95.400391 C 88.699219 95.400391 92.199219 97.699609 96.699219 99.099609 C 98.499219 99.699609 101.59922 100.19922 105.69922 100.69922 L 105.69922 105.59961 L 94.800781 105.59961 L 93.599609 105.29883 C 87.999609 103.49883 83.400781 100.79961 83.300781 100.59961 C 78.800781 97.599609 75.100781 93.699609 72.300781 89.099609 C 71.401393 87.700561 60.613034 71.518277 52.914062 59.919922 C 45.254869 71.484954 34.454785 87.767041 33.5 89.199219 C 30.7 93.799219 27 97.699219 22.5 100.69922 C 22.4 100.89922 17.799219 103.60039 12.199219 105.40039 L 11 105.69922 L 105.80078 105.69922 L 105.80078 4.9003906 z M 499.38086 8.8847656 L 499.38086 26.083984 L 482.67969 26.083984 L 480.17969 30.984375 L 499.48047 30.984375 L 499.48047 68.685547 C 499.28047 72.785547 499.98086 76.785156 501.38086 80.285156 C 501.38086 80.485156 502.98047 83.785156 505.48047 86.785156 C 506.78047 88.185156 509.28125 90.485156 512.78125 92.785156 L 515.17969 87.884766 C 512.47969 85.984766 510.58008 84.385156 509.58008 83.285156 C 507.48008 80.885156 506.38086 78.185547 506.38086 78.185547 C 505.28086 75.685547 504.78125 72.885547 504.78125 70.185547 L 504.78125 30.884766 L 523.67969 30.884766 L 521.17969 26.083984 L 504.67969 26.083984 L 504.67969 8.8847656 L 499.38086 8.8847656 z M 539.46289 25.517578 C 539.41346 25.471338 534.25745 26.428094 534.18945 26.496094 C 534.16111 26.524434 539.05149 41.077438 545.05664 58.835938 L 555.97461 91.125 L 555.50977 92.427734 C 554.93166 94.049294 553.76813 96.512599 552.90039 97.949219 C 550.52909 101.875 547.28292 104.88134 542.90039 107.21094 C 541.70159 107.84818 541.65715 107.88664 541.82422 108.14844 C 541.92011 108.29869 542.47047 109.21249 543.04883 110.17773 L 544.10156 111.93164 L 544.73047 111.61328 C 548.57542 109.66489 552.23057 106.69127 554.85352 103.37695 C 557.31243 100.26989 559.72924 95.95084 561.42969 91.625 C 561.94889 90.3042 583.16923 26.712072 583.11523 26.638672 C 583.0731 26.581452 578.25795 25.478878 578.21875 25.517578 C 578.1973 25.538708 573.82047 39.047873 568.49414 55.539062 C 563.16783 72.030243 558.77979 85.473109 558.74219 85.412109 C 558.70453 85.351119 554.36038 71.858374 549.08789 55.427734 C 543.8154 38.997104 539.48399 25.537278 539.46289 25.517578 z M 401.29297 26.097656 C 388.99297 26.097656 374.49219 30.598437 374.49219 61.398438 C 374.49219 89.998438 386.99258 96.398438 402.39258 96.398438 C 410.69258 96.398438 417.89336 94.897656 424.19336 91.097656 L 422.19336 86.597656 C 415.89336 90.197656 409.89219 91.597656 402.49219 91.597656 C 390.29219 91.597656 380.69258 87.197656 379.89258 65.597656 L 379.79297 62.898438 L 426.79297 62.998047 L 426.89258 63.097656 L 426.89258 61.296875 C 426.89258 34.796875 417.19297 26.097656 401.29297 26.097656 z M 223.49219 26.148438 C 213.69219 26.548438 207.09219 29.947266 202.99219 36.447266 L 202.99219 26.947266 C 201.09219 27.147266 199.39141 27.546875 197.69141 28.046875 L 197.69141 95.248047 C 199.29141 95.748047 201.09219 96.147656 202.99219 96.347656 L 202.99219 61.546875 L 202.99219 61.148438 C 202.99219 42.848437 206.79297 30.748047 225.79297 30.748047 L 225.89258 30.748047 L 223.49219 26.148438 z M 265.49219 26.148438 C 245.39219 26.148438 237.49219 37.348047 237.49219 61.248047 C 237.49219 85.148047 245.39219 96.347656 265.49219 96.347656 C 285.59219 96.347656 293.49219 85.148047 293.49219 61.248047 C 293.49219 37.248047 285.59219 26.048438 265.49219 26.148438 z M 466.39258 26.148438 C 456.59258 26.548438 449.99258 29.947266 445.89258 36.447266 L 445.89258 26.947266 C 443.99258 27.147266 442.2918 27.546875 440.5918 28.046875 L 440.5918 95.248047 C 442.1918 95.748047 443.99258 96.147656 445.89258 96.347656 L 445.89258 61.546875 L 445.89258 61.148438 C 445.89258 42.848437 449.96007 31.339507 468.69336 30.748047 L 468.79297 30.748047 L 466.39258 26.148438 z M 155 26.248047 C 144 26.248047 136.69883 29.648438 132.29883 36.648438 L 132.29883 27.648438 C 130.59883 27.148438 128.9 26.746875 127 26.546875 L 127 132.54688 C 128.9 132.34688 130.59883 131.94766 132.29883 131.34766 L 132.29883 85.947266 C 136.59883 92.947266 144 96.347656 155 96.347656 C 175.1 96.347656 183 85.048037 183 61.248047 C 183 37.448037 175.1 26.248047 155 26.248047 z M 333.0918 26.248047 C 322.0918 26.248047 314.79258 29.648438 310.39258 36.648438 L 310.39258 27.648438 C 308.69258 27.148438 306.9918 26.746875 305.0918 26.546875 L 305.0918 132.54688 C 306.9918 132.34688 308.69258 131.94766 310.39258 131.34766 L 310.39258 85.947266 C 314.69258 92.947266 322.0918 96.347656 333.0918 96.347656 C 353.1918 96.347656 361.0918 85.048037 361.0918 61.248047 C 361.0918 37.448037 353.1918 26.248047 333.0918 26.248047 z M 265.39258 30.847656 C 284.39258 30.847656 288.19336 42.948047 288.19336 61.248047 C 288.19336 79.448047 284.39258 91.548437 265.39258 91.648438 C 246.39258 91.648438 242.5918 79.548047 242.5918 61.248047 C 242.5918 42.948047 246.49258 30.847656 265.39258 30.847656 z M 401.19336 30.898438 C 413.29336 30.898438 421.49219 37.297656 421.49219 58.097656 L 379.5918 58.097656 C 380.0918 35.097656 390.19336 30.898438 401.19336 30.898438 z M 523.67969 30.984375 L 523.78125 31.185547 L 523.78125 30.984375 L 523.67969 30.984375 z M 155 31.046875 C 173.9 31.046875 177.69922 43.147656 177.69922 61.347656 C 177.69922 79.547646 173.9 91.648438 155 91.648438 C 136.1 91.648438 132.29883 79.547646 132.29883 61.347656 C 132.29883 43.047656 136.1 31.046875 155 31.046875 z M 333.0918 31.046875 C 351.9918 31.046875 355.79297 43.147656 355.79297 61.347656 C 355.79297 79.547646 351.9918 91.648438 333.0918 91.648438 C 314.1918 91.648438 310.39258 79.547646 310.39258 61.347656 C 310.39258 43.047656 314.1918 31.046875 333.0918 31.046875 z "
       transform="translate(0,197.39999)"
       id="path4147" /><path
       class="st1"
       d="m 57.599999,250.19974 c -1.3,1.9 -2.9,4.4 -4.7,7.1 7.700001,11.6 18.5,27.8 19.400001,29.2 2.8,4.6 6.5,8.5 11,11.5 0.1,0.2 4.7,2.89999 10.3,4.69999 0.4,0.1 0.8,0.2 1.2,0.3 l 10.9,0 0,-4.89999 c -4.1,-0.5 -7.2,-1 -9,-1.6 -4.5,-1.4 -8,-3.7 -8,-3.7 -3.4,-2.1 -5.9,-4.8 -7.9,-7.7 -1,-1.5 -15.000001,-22.5 -22.900001,-34.5 l 0,0 c -0.1,-0.1 -0.2,-0.2 -0.3,-0.4 M 10.9,197.39973 l -10.9,0 0,4.9 c 4.1,0.5 7.2,1 9,1.6 4.5,1.4 8,3.7 8,3.7 3.3,2.1 5.9,4.8 7.9,7.7 1,1.5 15,22.50001 22.9,34.50001 l 0,0 c 0.1,0.2 0.2,0.3 0.3,0.5 1.3,-1.9 2.9,-4.4 4.699999,-7.1 C 45.1,231.59973 34.3,215.39973 33.4,213.99973 c -2.8,-4.6 -6.5,-8.5 -11,-11.5 -0.1,-0.2 -4.7,-2.9 -10.3,-4.7 -0.3,-0.2 -0.7,-0.3 -1.2,-0.4"
       id="path9-3"
       inkscape:connector-curvature="0"
       style="fill:#ff8f45;fill-opacity:0.27843139" /></g></svg>