<?xml version="1.0" encoding="UTF-8" standalone="no"?>
<svg
   xmlns:dc="http://purl.org/dc/elements/1.1/"
   xmlns:cc="http://creativecommons.org/ns#"
   xmlns:rdf="http://www.w3.org/1999/02/22-rdf-syntax-ns#"
   xmlns:svg="http://www.w3.org/2000/svg"
   xmlns="http://www.w3.org/2000/svg"
   xmlns:sodipodi="http://sodipodi.sourceforge.net/DTD/sodipodi-0.dtd"
   xmlns:inkscape="http://www.inkscape.org/namespaces/inkscape"
   id="Calque_1"
   data-name="Calque 1"
   viewBox="0 0 265 97.52"
   version="1.1"
   sodipodi:docname="bqplot.svg"
   inkscape:version="0.92.3 (unknown)">
  <metadata
     id="metadata17">
    <rdf:RDF>
      <cc:Work
         rdf:about="">
        <dc:format>image/svg+xml</dc:format>
        <dc:type
           rdf:resource="http://purl.org/dc/dcmitype/StillImage" />
      </cc:Work>
    </rdf:RDF>
  </metadata>
  <sodipodi:namedview
     pagecolor="#ffffff"
     bordercolor="#666666"
     borderopacity="1"
     objecttolerance="10"
     gridtolerance="10"
     guidetolerance="10"
     inkscape:pageopacity="0"
     inkscape:pageshadow="2"
     inkscape:window-width="2044"
     inkscape:window-height="1076"
     id="namedview15"
     showgrid="false"
     inkscape:zoom="3.9918179"
     inkscape:cx="60.181937"
     inkscape:cy="38.292519"
     inkscape:window-x="0"
     inkscape:window-y="44"
     inkscape:window-maximized="0"
     inkscape:current-layer="Calque_1" />
  <defs
     id="defs4">
    <style
       id="style2">.cls-1{fill:#171729;}.cls-2{fill:#ea691c;}.cls-3{fill:#fff;}</style>
  </defs>
  <title
     id="title6">bqplot</title>
  <path
     class="cls-2"
     d="M49.17,14V52.32h7.29a1,1,0,0,1,.78.4,1.51,1.51,0,0,1,0,1.86,1,1,0,0,1-.8.39H47.74a1.4,1.4,0,0,1-.94-.33,1,1,0,0,1-.39-.83V12.51a1,1,0,0,1,.39-.83,1.4,1.4,0,0,1,.94-.33h8.72a1,1,0,0,1,.8.39,1.49,1.49,0,0,1,.31.91,1.47,1.47,0,0,1-.33,1,1,1,0,0,1-.78.39ZM79.38,30.37a9.81,9.81,0,0,1,2.93,7.15v6.41a10,10,0,0,1-3,7.12,9.24,9.24,0,0,1-6.87,3.1A8.74,8.74,0,0,1,68,52.93a7.56,7.56,0,0,1-3-3V52.6a1.17,1.17,0,0,1-.39.83,1.27,1.27,0,0,1-.94.38,1.33,1.33,0,0,1-.94-.36,1.09,1.09,0,0,1-.38-.85V12.67a1,1,0,0,1,.38-.82,1.4,1.4,0,0,1,.94-.33,1.44,1.44,0,0,1,1,.33,1,1,0,0,1,.39.82V31.61a8.21,8.21,0,0,1,7.35-4.19A9.51,9.51,0,0,1,79.38,30.37Zm.22,7.15a7.4,7.4,0,0,0-2.21-5.24A6.92,6.92,0,0,0,72.2,30a7,7,0,0,0-5,2.1A7.25,7.25,0,0,0,65,37.52v8.29c0,1.07.74,2.3,2.21,3.7a7.09,7.09,0,0,0,5,2.1,6.86,6.86,0,0,0,5.14-2.35,7.59,7.59,0,0,0,2.21-5.33Zm27.94-8.67V65.58a1.12,1.12,0,0,1-.39.85,1.31,1.31,0,0,1-.93.36,1.38,1.38,0,0,1-1-.39,1.1,1.1,0,0,1-.42-.82V50a7.6,7.6,0,0,1-3,3,8.67,8.67,0,0,1-4.45,1.22,9.26,9.26,0,0,1-6.88-3.1,10,10,0,0,1-3-7.12V37.52a9.81,9.81,0,0,1,2.93-7.15,9.51,9.51,0,0,1,7-2.95A8.22,8.22,0,0,1,102,28.63a8.42,8.42,0,0,1,2.93,3V28.85a1,1,0,0,1,.39-.8,1.47,1.47,0,0,1,.94-.3C107.1,27.75,107.54,28.12,107.54,28.85Zm-2.71,8.67A7.25,7.25,0,0,0,102.68,32a7,7,0,0,0-5-2.07,6.92,6.92,0,0,0-5.19,2.32,7.36,7.36,0,0,0-2.21,5.24v6.41a7.55,7.55,0,0,0,2.21,5.33,6.86,6.86,0,0,0,5.13,2.35,7.12,7.12,0,0,0,5-2.1c1.47-1.4,2.2-2.63,2.2-3.7Zm18.28-25.84a1.38,1.38,0,0,0-.94-.33h-8.72a1,1,0,0,0-.83.39,1.4,1.4,0,0,0-.33.91,1.47,1.47,0,0,0,.33,1,1,1,0,0,0,.83.39h7.29V52.32h-7.29a1,1,0,0,0-.83.4,1.44,1.44,0,0,0-.33,1,1.35,1.35,0,0,0,.33.9,1,1,0,0,0,.83.39h8.72a1.38,1.38,0,0,0,.94-.33,1,1,0,0,0,.39-.83V12.51A1,1,0,0,0,123.11,11.68Z"
     id="path10" />
  <path
     class="cls-3"
     d="M141.11,27.42a7.93,7.93,0,0,0-7.4,4.19V28.85a1,1,0,0,0-.38-.8,1.49,1.49,0,0,0-.94-.3c-.88,0-1.33.37-1.33,1.1V65.58a1.12,1.12,0,0,0,.39.85,1.33,1.33,0,0,0,.94.36,1.38,1.38,0,0,0,1-.39,1.12,1.12,0,0,0,.41-.82V50a7.74,7.74,0,0,0,3,3,8.59,8.59,0,0,0,4.48,1.22,9.24,9.24,0,0,0,6.87-3.1,10,10,0,0,0,3-7.12V37.52a9.8,9.8,0,0,0-2.92-7.15A9.52,9.52,0,0,0,141.11,27.42Zm7.24,16.51a7.59,7.59,0,0,1-2.21,5.33A6.86,6.86,0,0,1,141,51.61a7.09,7.09,0,0,1-5-2.1c-1.47-1.4-2.21-2.63-2.21-3.7V37.52A7.28,7.28,0,0,1,135.92,32a7,7,0,0,1,10.19.25,7.35,7.35,0,0,1,2.24,5.24Zm11.7-32.08a1,1,0,0,1,.39.82V52.6a1.16,1.16,0,0,1-.41.83,1.37,1.37,0,0,1-1,.38,1.33,1.33,0,0,1-.94-.36,1.09,1.09,0,0,1-.38-.85V12.67a1,1,0,0,1,.38-.82,1.4,1.4,0,0,1,.94-.33A1.44,1.44,0,0,1,160.05,11.85Zm17.18,15.57a10.23,10.23,0,0,0-10.11,10.1v6.41a9.83,9.83,0,0,0,3,7.15,9.67,9.67,0,0,0,14.16,0,9.8,9.8,0,0,0,3.07-7.12V37.52a9.62,9.62,0,0,0-3-7.12A9.82,9.82,0,0,0,177.23,27.42Zm7.45,16.51a7.55,7.55,0,0,1-2.21,5.33,7,7,0,0,1-5.24,2.35A6.89,6.89,0,0,1,172,49.26a7.6,7.6,0,0,1-2.18-5.33V37.52A7.41,7.41,0,0,1,172,32.28,6.89,6.89,0,0,1,177.23,30a7,7,0,0,1,5.24,2.32,7.36,7.36,0,0,1,2.21,5.24Zm19.52,7.7a1.24,1.24,0,0,1,.36.91,1.26,1.26,0,0,1-.36.89,1.17,1.17,0,0,1-.91.38h-1.38q-8.39,0-8.39-7.89V16.26a1,1,0,0,1,.41-.82,1.39,1.39,0,0,1,.91-.34,1.47,1.47,0,0,1,1,.34,1,1,0,0,1,.41.82V27.75h7.35a.93.93,0,0,1,.74.36,1.24,1.24,0,0,1,.31.85,1.17,1.17,0,0,1-.33.81,1,1,0,0,1-.72.35h-7.35v15.8c0,1.95.43,3.33,1.27,4.14s2.32,1.21,4.42,1.21h1.38A1.23,1.23,0,0,1,204.2,51.63Z"
     id="path12"
     style="fill:#333333" />
</svg>
