<?xml version="1.0" encoding="UTF-8" standalone="no"?>
<svg
   xmlns:dc="http://purl.org/dc/elements/1.1/"
   xmlns:cc="http://creativecommons.org/ns#"
   xmlns:rdf="http://www.w3.org/1999/02/22-rdf-syntax-ns#"
   xmlns:svg="http://www.w3.org/2000/svg"
   xmlns="http://www.w3.org/2000/svg"
   xmlns:sodipodi="http://sodipodi.sourceforge.net/DTD/sodipodi-0.dtd"
   xmlns:inkscape="http://www.inkscape.org/namespaces/inkscape"
   id="Calque_1"
   data-name="Calque 1"
   viewBox="0 0 265 97.52"
   version="1.1"
   sodipodi:docname="ipyleaflet.svg"
   inkscape:version="0.92.3 (unknown)">
  <metadata
     id="metadata17">
    <rdf:RDF>
      <cc:Work
         rdf:about="">
        <dc:format>image/svg+xml</dc:format>
        <dc:type
           rdf:resource="http://purl.org/dc/dcmitype/StillImage" />
      </cc:Work>
    </rdf:RDF>
  </metadata>
  <sodipodi:namedview
     pagecolor="#ffffff"
     bordercolor="#666666"
     borderopacity="1"
     objecttolerance="10"
     gridtolerance="10"
     guidetolerance="10"
     inkscape:pageopacity="0"
     inkscape:pageshadow="2"
     inkscape:window-width="2044"
     inkscape:window-height="1076"
     id="namedview15"
     showgrid="false"
     inkscape:zoom="3.9918179"
     inkscape:cx="118.4481"
     inkscape:cy="76.7162"
     inkscape:window-x="0"
     inkscape:window-y="44"
     inkscape:window-maximized="0"
     inkscape:current-layer="Calque_1" />
  <defs
     id="defs4">
    <style
       id="style2">.cls-1{fill:#171729;}.cls-2{fill:#80d588;}.cls-3{fill:#fff;}</style>
  </defs>
  <title
     id="title6">ipyleaflet_1</title>
  <path
     class="cls-2"
     d="M26.75,14V53.28h7.46a1,1,0,0,1,.79.4,1.47,1.47,0,0,1,.34,1,1.57,1.57,0,0,1-.31.93,1,1,0,0,1-.82.4h-9a1.47,1.47,0,0,1-1-.34,1.13,1.13,0,0,1-.4-.85V12.38a1.11,1.11,0,0,1,.4-.85,1.35,1.35,0,0,1,1-.22h9.05a1,1,0,0,1,.82.39,1.58,1.58,0,0,1,.31.94,1.49,1.49,0,0,1-.34,1,1,1,0,0,1-.79.39ZM41.57,28.16c-.91,0-1.36.37-1.36,1.13V53.62a1.24,1.24,0,0,0,.39.88,1.33,1.33,0,0,0,1,.36,1.47,1.47,0,0,0,1-.39,1.13,1.13,0,0,0,.42-.85V29.24c0-.77-.48-1.13-1.41-1.13Zm0-12.5a2.13,2.13,0,0,0-1.53.6,1.77,1.77,0,0,0-.62,1.38A1.94,1.94,0,0,0,40,19.11a2,2,0,0,0,1.53.62,2.12,2.12,0,0,0,2.09-2.09A1.77,1.77,0,0,0,43,16.26a2,2,0,0,0-1.47-.65ZM67.93,30.85a10,10,0,0,1,3,7.33v6.56a10.36,10.36,0,0,1-3,7.3,9.39,9.39,0,0,1-7,3.16,8.94,8.94,0,0,1-4.59-1.27,8,8,0,0,1-3.05-3v16a1.13,1.13,0,0,1-.42.85,1.48,1.48,0,0,1-1,.4,1.34,1.34,0,0,1-1-.37,1.2,1.2,0,0,1-.39-.88V29.24c0-.77.45-1.13,1.36-1.13a1.53,1.53,0,0,1,1,.31,1,1,0,0,1,.39.82v2.83a8.11,8.11,0,0,1,7.58-4.3,9.79,9.79,0,0,1,7.19,3Zm.22,7.33a7.52,7.52,0,0,0-2.29-5.38,7.2,7.2,0,0,0-5.34-2.37,7.09,7.09,0,0,0-5.09,2.12,7.42,7.42,0,0,0-2.21,5.65v8.49a5.85,5.85,0,0,0,2.26,3.79,7.23,7.23,0,0,0,5.15,2.15,7,7,0,0,0,5.26-2.4,7.83,7.83,0,0,0,2.26-5.46ZM93.84,27.77a1.21,1.21,0,0,0-1.08.7L85,50.25,77,28.47a.94.94,0,0,0-.91-.76,1.71,1.71,0,0,0-1.1.4,1.18,1.18,0,0,0-.51,1,1.69,1.69,0,0,0,0,.45l9.11,24.41q-3.48,11.59-8.2,11.6c-.65,0-1,.42-1,1.3a1.14,1.14,0,0,0,.93,1.3,1.93,1.93,0,0,0,.34,0,6.14,6.14,0,0,0,2.57-.57,6.36,6.36,0,0,0,2.29-1.89,27.63,27.63,0,0,0,1.81-2.38A16.13,16.13,0,0,0,84,60.12c.63-1.41,1-2.43,1.25-3l1.22-3.17,8.93-24.38a1.7,1.7,0,0,0,0-.45,1.14,1.14,0,0,0-.51-1,1.73,1.73,0,0,0-1-.43ZM107,11.7a1.41,1.41,0,0,0-1-.34H97.06a1.11,1.11,0,0,0-.85.4,1.54,1.54,0,0,0-.34.88,1.49,1.49,0,0,0,.34,1,1.1,1.1,0,0,0,.85.39h7.47V53.28H97.06a1.08,1.08,0,0,0-.85.4,1.47,1.47,0,0,0-.34,1,1.44,1.44,0,0,0,.34.93,1.11,1.11,0,0,0,.85.4H106a1.47,1.47,0,0,0,1-.34,1.13,1.13,0,0,0,.4-.85V12.38a1.14,1.14,0,0,0-.4-.73Z"
     id="path10"
     style="fill:#d4aa00" />
  <path
     class="cls-3"
     d="M117.93,11.82a1.08,1.08,0,0,1,.4.84v40.9a1.17,1.17,0,0,1-.42.85,1.53,1.53,0,0,1-1,.4,1.34,1.34,0,0,1-1-.37,1.22,1.22,0,0,1-.39-.88V12.66a1.1,1.1,0,0,1,.39-.84,1.49,1.49,0,0,1,1-.32A1.47,1.47,0,0,1,117.93,11.82Zm24.92,18.89a9.8,9.8,0,0,1,3,7.3,6.66,6.66,0,0,1-.37,2.46,2.41,2.41,0,0,1-1.16,1.33,4.89,4.89,0,0,1-1.44.48c-.61,0-1.23,0-1.84,0H128v2.37a7.13,7.13,0,0,0,2.55,5.66,9.74,9.74,0,0,0,6.56,2.15,9.62,9.62,0,0,0,3.45-.57,9.4,9.4,0,0,0,2.15-1.13,2.23,2.23,0,0,1,1.1-.56,1.11,1.11,0,0,1,.91.45,1.47,1.47,0,0,1,.39.9c0,.71-.79,1.48-2.34,2.27A12.86,12.86,0,0,1,137.11,55a12.33,12.33,0,0,1-8.48-2.83,9.64,9.64,0,0,1-3.29-7.58V38a9.7,9.7,0,0,1,3.06-7.18,10.4,10.4,0,0,1,14.57,0Zm.37,7.3a7.77,7.77,0,0,0-2.09-5.38,7,7,0,0,0-5.43-2.37,7.42,7.42,0,0,0-5.41,2.2,7.08,7.08,0,0,0-2.23,5.26V40h12.05a5.63,5.63,0,0,0,2.54-.39A1.93,1.93,0,0,0,143.22,38Zm23.36-7.16A12.33,12.33,0,0,1,169,38.63V53.56a1.23,1.23,0,0,1-.4.88,1.44,1.44,0,0,1-1.92,0,1.23,1.23,0,0,1-.4-.88V50.73a11,11,0,0,1-8.48,4.3,8.2,8.2,0,0,1-5.66-1.89,7,7,0,0,1-2.18-5.66,6,6,0,0,1,3.37-5.91,22.88,22.88,0,0,1,9.81-1.67h3.06V38.43a9.7,9.7,0,0,0-1.78-5.85A6.15,6.15,0,0,0,159,30.12a9.91,9.91,0,0,0-4,.79l-1.92.79a1,1,0,0,1-.93-.4,1.83,1.83,0,0,1-.34-1c0-.65.79-1.24,2.35-1.78a15.39,15.39,0,0,1,5-.82A8.74,8.74,0,0,1,166.58,30.85Zm-.39,11.51h-2.83c-1.62,0-3,.06-4.07.17a19.35,19.35,0,0,0-3.29.65,4.56,4.56,0,0,0-2.48,1.59,4.4,4.4,0,0,0-.85,2.82,4.7,4.7,0,0,0,1.5,3.82,5.89,5.89,0,0,0,3.93,1.28,8.57,8.57,0,0,0,5.46-2.07,5.68,5.68,0,0,0,2.57-4Zm13.4-28a9.45,9.45,0,0,0-3.45,7.58V53.59c0,.79.43,1.19,1.3,1.19a1.65,1.65,0,0,0,1.05-.34,1,1,0,0,0,.42-.85V30.54h7.47a1,1,0,0,0,.79-.37,1.25,1.25,0,0,0,.34-.88,1.2,1.2,0,0,0-.22-.82,1,1,0,0,0-.91-.36h-7.47V21.88A7.49,7.49,0,0,1,181.52,16a9,9,0,0,1,6.11-2.26,8.28,8.28,0,0,1,6.11,2.43V53.56a1.19,1.19,0,0,0,.39.85,1.35,1.35,0,0,0,1,.4,1.51,1.51,0,0,0,1-.4,1.14,1.14,0,0,0,.43-.85V15.38a10.85,10.85,0,0,0-8.83-3.88A12.24,12.24,0,0,0,179.59,14.33ZM221,30.71a9.8,9.8,0,0,1,3,7.3,6.87,6.87,0,0,1-.37,2.46,2.41,2.41,0,0,1-1.16,1.33,4.89,4.89,0,0,1-1.44.48c-.62,0-1.23,0-1.84,0H206.18v2.37a7.13,7.13,0,0,0,2.55,5.66,11,11,0,0,0,10,1.58,9,9,0,0,0,2.12-1.13A2.41,2.41,0,0,1,222,50.2a1.13,1.13,0,0,1,.91.45,1.47,1.47,0,0,1,.39.9c0,.71-.79,1.48-2.35,2.27A12.78,12.78,0,0,1,215.29,55a12.36,12.36,0,0,1-8.49-2.83,9.64,9.64,0,0,1-3.45-7.5V38a9.68,9.68,0,0,1,3.11-7.18,10.4,10.4,0,0,1,14.57,0Zm.37,7.3a7.79,7.79,0,0,0-2.15-5.38,7,7,0,0,0-5.43-2.37,7.42,7.42,0,0,0-5.41,2.2,7.16,7.16,0,0,0-2.23,5.26V40h12a5.63,5.63,0,0,0,2.54-.39A1.78,1.78,0,0,0,221.4,38Zm18.44,14.14h-1.42a6.57,6.57,0,0,1-4.52-1,5.68,5.68,0,0,1-1.3-4.24V30.54h7.52a1,1,0,0,0,.74-.37,1.24,1.24,0,0,0,.34-.82,1.36,1.36,0,0,0-.32-.88.89.89,0,0,0-.76-.36H232.6V16.34a1.07,1.07,0,0,0-.43-.85,1.6,1.6,0,0,0-1-.34,1.44,1.44,0,0,0-.93.34,1,1,0,0,0-.42.85V46.72q0,8.1,8.48,8.09h1.42a1.31,1.31,0,0,0,1.3-1.3,1.24,1.24,0,0,0-1.19-1.3h-.11Z"
     id="path12"
     style="fill:#333333" />
</svg>
