<?xml version="1.0" encoding="UTF-8" standalone="no"?>
<svg
   xmlns:dc="http://purl.org/dc/elements/1.1/"
   xmlns:cc="http://creativecommons.org/ns#"
   xmlns:rdf="http://www.w3.org/1999/02/22-rdf-syntax-ns#"
   xmlns:svg="http://www.w3.org/2000/svg"
   xmlns="http://www.w3.org/2000/svg"
   xmlns:sodipodi="http://sodipodi.sourceforge.net/DTD/sodipodi-0.dtd"
   xmlns:inkscape="http://www.inkscape.org/namespaces/inkscape"
   id="Calque_1"
   data-name="Calque 1"
   viewBox="0 0 265 97.52"
   version="1.1"
   sodipodi:docname="pythreejs.svg"
   inkscape:version="0.92.3 (unknown)">
  <metadata
     id="metadata17">
    <rdf:RDF>
      <cc:Work
         rdf:about="">
        <dc:format>image/svg+xml</dc:format>
        <dc:type
           rdf:resource="http://purl.org/dc/dcmitype/StillImage" />
      </cc:Work>
    </rdf:RDF>
  </metadata>
  <sodipodi:namedview
     pagecolor="#ffffff"
     bordercolor="#666666"
     borderopacity="1"
     objecttolerance="10"
     gridtolerance="10"
     guidetolerance="10"
     inkscape:pageopacity="0"
     inkscape:pageshadow="2"
     inkscape:window-width="2044"
     inkscape:window-height="1076"
     id="namedview15"
     showgrid="false"
     inkscape:zoom="3.9918179"
     inkscape:cx="96.754442"
     inkscape:cy="49.974685"
     inkscape:window-x="0"
     inkscape:window-y="44"
     inkscape:window-maximized="0"
     inkscape:current-layer="Calque_1" />
  <defs
     id="defs4">
    <style
       id="style2">.cls-1{fill:#1b1a2d;}.cls-2{fill:#96cf41;}.cls-3{fill:#fff;}</style>
  </defs>
  <title
     id="title6">[py]threejs</title>
  <path
     class="cls-2"
     d="M25.64,14.3V51.81h7a1.23,1.23,0,0,1,1,.51,2,2,0,0,1,0,2.4,1.23,1.23,0,0,1-1,.51h-9a1.88,1.88,0,0,1-1.18-.39,1.23,1.23,0,0,1-.51-1V12.29a1.24,1.24,0,0,1,.51-1,1.88,1.88,0,0,1,1.18-.39h9a1.23,1.23,0,0,1,1,.51,1.88,1.88,0,0,1,.39,1.15,2,2,0,0,1-.39,1.25,1.23,1.23,0,0,1-1,.51Zm31.21,16a10.32,10.32,0,0,1,3,7.41v6.12a10.57,10.57,0,0,1-3,7.44,9.21,9.21,0,0,1-6.93,3.22,8.54,8.54,0,0,1-4.55-1.27,8.22,8.22,0,0,1-3-3.1v15.6a1.28,1.28,0,0,1-.53,1,2,2,0,0,1-1.32.45,1.87,1.87,0,0,1-1.26-.45,1.27,1.27,0,0,1-.54-1V28.84a1.17,1.17,0,0,1,.51-.95,2,2,0,0,1,1.29-.39,1.88,1.88,0,0,1,1.23.4,1.17,1.17,0,0,1,.51,1v2.62a8.53,8.53,0,0,1,3-3.07,8.33,8.33,0,0,1,4.55-1.25A9.54,9.54,0,0,1,56.85,30.25Zm-.67,7.43a6.87,6.87,0,0,0-2.11-4.92,6.76,6.76,0,0,0-9.71-.22,6.76,6.76,0,0,0-2,5.14v7.81c0,1,.7,2.18,2.11,3.52a6.75,6.75,0,0,0,4.8,2,6.48,6.48,0,0,0,4.85-2.23,7.14,7.14,0,0,0,2.11-5Zm27.87-10a2.61,2.61,0,0,0-1.49-.53,1.22,1.22,0,0,0-1.23.78l-7.24,20.6L66.4,27.94c-.15-.52-.58-.78-1.3-.78a2.57,2.57,0,0,0-1.51.53,1.5,1.5,0,0,0-.73,1.21,1.06,1.06,0,0,0,.17.5l9.15,23.45a22.29,22.29,0,0,1-3.34,7.7q-2.22,3.11-4.8,3.1c-.75,0-1.12.58-1.12,1.74a1.49,1.49,0,0,0,1.68,1.69,6.29,6.29,0,0,0,2.53-.54,11.38,11.38,0,0,0,2.1-1.15,7.9,7.9,0,0,0,1.83-2l1.46-2.25a18.09,18.09,0,0,0,1.37-2.75c.54-1.27.91-2.15,1.1-2.64L76,53,84.7,29.4a.66.66,0,0,0,.11-.45A1.53,1.53,0,0,0,84.05,27.69ZM96.68,11.27a2,2,0,0,0-1.2-.39h-9a1.14,1.14,0,0,0-1,.51,1.92,1.92,0,0,0-.37,1.15,2,2,0,0,0,.39,1.25,1.18,1.18,0,0,0,1,.51h7.07V51.81H86.44a1.18,1.18,0,0,0-1,.51,1.92,1.92,0,0,0-.39,1.2,2,2,0,0,0,.37,1.2,1.14,1.14,0,0,0,1,.51h9a2,2,0,0,0,1.2-.39,1.21,1.21,0,0,0,.54-1V12.29A1.22,1.22,0,0,0,96.68,11.27Z"
     id="path10" />
  <path
     class="cls-3"
     d="M108.11,30.59V45.73c0,1.82.38,3.09,1.15,3.81s2.12,1.09,4.07,1.09h1.57a1.61,1.61,0,0,1,1.21.49,1.69,1.69,0,0,1,.47,1.19,1.78,1.78,0,0,1-.47,1.22,1.56,1.56,0,0,1-1.21.52h-1.57q-8.86,0-8.87-8.24V16.27a1.14,1.14,0,0,1,.56-.95,2.05,2.05,0,0,1,1.23-.4,2.24,2.24,0,0,1,1.3.39,1.16,1.16,0,0,1,.56,1V27.5h7.24a1.15,1.15,0,0,1,.93.46,1.68,1.68,0,0,1,.36,1.08,1.72,1.72,0,0,1-.36,1.09,1.17,1.17,0,0,1-.93.46Zm24.19-3.43a8.26,8.26,0,0,0-7.41,4.32V12.62a1.16,1.16,0,0,0-.53-.95,2.2,2.2,0,0,0-1.32-.4,2.07,2.07,0,0,0-1.29.4,1.17,1.17,0,0,0-.51.95v40a1.29,1.29,0,0,0,.54,1,1.87,1.87,0,0,0,1.26.45,2,2,0,0,0,1.29-.45,1.24,1.24,0,0,0,.56-1V37.7a6.81,6.81,0,0,1,2-5.15,6.59,6.59,0,0,1,4.69-2,6.5,6.5,0,0,1,4.88,2.18,7,7,0,0,1,2.08,4.93V52.6a1.24,1.24,0,0,0,.56,1.06,2.14,2.14,0,0,0,1.24.39,2.19,2.19,0,0,0,1.32-.39,1.27,1.27,0,0,0,.53-1.07V37.66a10.34,10.34,0,0,0-3-7.41A9.32,9.32,0,0,0,132.3,27.16Zm29.81,0h-2a8,8,0,0,0-4.55,1.31,8.81,8.81,0,0,0-3,3.18V28.86a1.17,1.17,0,0,0-.51-1,1.92,1.92,0,0,0-1.24-.4,2.06,2.06,0,0,0-1.29.39,1.18,1.18,0,0,0-.5.95V52.59a1.31,1.31,0,0,0,.53,1,1.91,1.91,0,0,0,1.26.45,2,2,0,0,0,1.32-.45,1.28,1.28,0,0,0,.54-1V38.76A8.09,8.09,0,0,1,155,32.85a7.08,7.08,0,0,1,5.17-2.26h2a1.33,1.33,0,0,0,1-.52,1.76,1.76,0,0,0,.45-1.2,1.79,1.79,0,0,0-.45-1.2A1.32,1.32,0,0,0,162.11,27.16Zm21.64,2.92a9.61,9.61,0,0,1,3.12,7.31,7.28,7.28,0,0,1-.36,2.52,2.38,2.38,0,0,1-1.18,1.34,6,6,0,0,1-1.49.51,12.59,12.59,0,0,1-1.85.11H169.3V44a6.53,6.53,0,0,0,2.39,5.3,9.25,9.25,0,0,0,6.14,2,9,9,0,0,0,3.34-.57,9.14,9.14,0,0,0,2.19-1.12,2.35,2.35,0,0,1,1.21-.56,1.38,1.38,0,0,1,1.09.59,1.84,1.84,0,0,1,.48,1.15c0,.79-.8,1.6-2.41,2.44a12.89,12.89,0,0,1-6,1.26A12.73,12.73,0,0,1,169,51.5a9.76,9.76,0,0,1-3.37-7.72V37.49a9.82,9.82,0,0,1,3.14-7.27,10.85,10.85,0,0,1,15-.14Zm-.42,7.2a6.94,6.94,0,0,0-2-4.91,6.61,6.61,0,0,0-5-2.12,6.82,6.82,0,0,0-5,2,6.47,6.47,0,0,0-2,4.79v2.12h11.23a4.63,4.63,0,0,0,2.24-.36C183.15,38.57,183.33,38.06,183.33,37.28ZM195,41.87V44a6.53,6.53,0,0,0,2.39,5.3,9.25,9.25,0,0,0,6.14,2,9,9,0,0,0,3.34-.57,9.14,9.14,0,0,0,2.19-1.12,2.35,2.35,0,0,1,1.21-.56,1.41,1.41,0,0,1,1.1.59,1.88,1.88,0,0,1,.47,1.15c0,.79-.8,1.6-2.41,2.44a14.58,14.58,0,0,1-14.71-1.68,9.76,9.76,0,0,1-3.37-7.72V37.49a9.82,9.82,0,0,1,3.14-7.27,10.87,10.87,0,0,1,15-.14,9.64,9.64,0,0,1,3.11,7.31,7.28,7.28,0,0,1-.36,2.52A2.38,2.38,0,0,1,211,41.25a5.86,5.86,0,0,1-1.49.51,12.59,12.59,0,0,1-1.85.11Zm0-2.7h11.23a4.63,4.63,0,0,0,2.24-.36c.38-.24.56-.75.56-1.53a6.94,6.94,0,0,0-2-4.91,6.61,6.61,0,0,0-5-2.12,6.82,6.82,0,0,0-5,2A6.47,6.47,0,0,0,195,37.05ZM219.88,15a2.56,2.56,0,0,0-1.8.67,2.16,2.16,0,0,0-.73,1.63,2.25,2.25,0,0,0,.73,1.66,2.5,2.5,0,0,0,1.8.7,2.32,2.32,0,0,0,1.71-.7,2.26,2.26,0,0,0,.7-1.66,2.16,2.16,0,0,0-.7-1.63A2.38,2.38,0,0,0,219.88,15Zm1.32,12.91a2.46,2.46,0,0,0-2.61,0,1.14,1.14,0,0,0-.51,1V56.38a14.51,14.51,0,0,1-.78,5.45A3.19,3.19,0,0,1,214,63.65a1.45,1.45,0,0,0-1.12.5,1.75,1.75,0,0,0-.45,1.24,1.7,1.7,0,0,0,.45,1.19,1.81,1.81,0,0,0,1.4.5q7.41,0,7.41-10.61V28.84A1.16,1.16,0,0,0,221.2,27.89Zm22.37,14.59A6.67,6.67,0,0,0,240.09,40L236,38.82a12.42,12.42,0,0,1-3.48-1.59,3.1,3.1,0,0,1-1.46-2.69,4,4,0,0,1,1.41-3,5.92,5.92,0,0,1,4.21-1.32,10.13,10.13,0,0,1,3.87.78,15.53,15.53,0,0,0,2.08.79,1.27,1.27,0,0,0,1.06-.67,2.28,2.28,0,0,0,.45-1.24c0-.67-.79-1.3-2.38-1.88a14.91,14.91,0,0,0-5.14-.87c-3,0-5.17.76-6.65,2.27a7.45,7.45,0,0,0-2.22,5.37,5.83,5.83,0,0,0,1.43,4.12,7.82,7.82,0,0,0,3.48,2.17l4.07,1.23a9.63,9.63,0,0,1,3.45,1.82,4,4,0,0,1,1.44,3.23,3.49,3.49,0,0,1-1.41,2.86,6.94,6.94,0,0,1-4.38,1.13,9.49,9.49,0,0,1-3.76-.68,11.43,11.43,0,0,1-2.41-1.32,2.54,2.54,0,0,0-1.24-.64,1.14,1.14,0,0,0-.9.56,2,2,0,0,0-.39,1.12c0,.94.85,1.85,2.56,2.73a13.64,13.64,0,0,0,6.26,1.31,10.29,10.29,0,0,0,6.65-1.93A6.46,6.46,0,0,0,245,47.2,7.5,7.5,0,0,0,243.57,42.48Z"
     id="path12"
     style="fill:#333333" />
</svg>
